<svg id="svg" version="1.1" xmlns="http://www.w3.org/2000/svg" xmlns:xlink="http://www.w3.org/1999/xlink" width="400" height="400" viewBox="0, 0, 400,400"><g id="svgg"><path id="path0" d="M251.726 37.175 C 250.277 41.912,248.232 42.315,231.200 41.219 C 228.010 41.014,221.080 40.791,215.800 40.723 L 206.200 40.600 206.099 94.445 L 205.997 148.291 207.745 148.530 C 208.707 148.662,214.602 148.870,220.847 148.991 C 227.091 149.113,235.170 149.392,238.800 149.612 C 263.010 151.080,267.156 151.398,280.200 152.788 C 282.180 152.999,285.870 153.371,288.400 153.613 C 292.651 154.021,300.312 154.985,307.600 156.030 C 320.099 157.822,323.826 158.299,324.000 158.130 C 325.458 156.714,325.455 95.568,323.996 78.000 C 323.786 75.470,323.437 71.150,323.221 68.400 C 321.650 48.413,322.314 50.692,317.916 50.191 C 316.752 50.058,314.990 49.794,314.000 49.604 C 313.010 49.414,310.850 49.063,309.200 48.823 C 307.550 48.583,303.950 48.042,301.200 47.622 C 298.450 47.201,294.490 46.663,292.400 46.427 C 269.481 43.831,268.007 43.381,268.001 38.973 L 268.000 37.746 261.300 37.254 C 257.615 36.984,253.996 36.715,253.258 36.657 C 252.325 36.583,251.859 36.741,251.726 37.175 M179.600 160.835 C 172.890 161.014,164.340 161.357,160.600 161.598 C 156.860 161.838,150.830 162.208,147.200 162.420 C 137.770 162.969,133.683 163.319,119.100 164.823 C 116.845 165.056,113.380 165.407,111.400 165.603 C 106.739 166.065,99.114 167.059,93.000 168.000 C 89.849 168.485,86.095 169.024,82.100 169.566 C 76.824 170.281,76.779 170.302,77.008 171.949 C 77.120 172.747,77.570 176.389,78.010 180.042 C 79.897 195.719,82.937 211.117,86.828 224.700 C 87.670 227.640,88.018 228.865,88.363 230.100 C 89.429 233.910,94.413 247.339,96.492 252.000 C 99.122 257.896,104.065 267.445,105.614 269.620 C 106.046 270.227,106.400 270.835,106.400 270.972 C 106.400 271.387,113.242 281.628,115.371 284.400 C 121.959 292.974,132.018 303.200,141.400 310.860 C 149.894 317.794,155.497 321.684,172.600 332.518 C 175.020 334.051,177.752 335.822,178.672 336.453 C 179.592 337.084,180.438 337.600,180.552 337.600 C 180.666 337.600,182.794 338.921,185.280 340.536 C 192.204 345.033,193.562 345.766,193.796 345.137 C 193.905 344.842,194.041 325.970,194.097 303.200 L 194.200 261.800 195.132 260.494 C 196.148 259.069,197.887 258.000,199.188 258.000 C 200.002 258.000,200.015 257.860,199.908 249.900 L 199.800 241.800 198.805 241.660 C 197.531 241.480,195.912 240.325,194.953 238.910 C 194.232 237.847,194.191 236.151,194.000 199.200 L 193.800 160.600 192.800 160.555 C 192.250 160.530,186.310 160.656,179.600 160.835 " stroke="none" fill="#e91323" fill-rule="evenodd"></path><path id="path1" d="M159.810 0.274 C 155.856 0.354,152.445 0.595,152.230 0.810 C 152.013 1.027,149.306 1.200,146.120 1.200 C 142.573 1.200,140.400 1.352,140.400 1.600 C 140.400 1.841,138.741 2.000,136.224 2.000 C 133.871 2.000,131.939 2.175,131.800 2.400 C 131.661 2.625,129.729 2.800,127.376 2.800 C 124.859 2.800,123.200 2.959,123.200 3.200 C 123.200 3.437,121.733 3.600,119.600 3.600 C 117.467 3.600,116.000 3.763,116.000 4.000 C 116.000 4.235,114.600 4.400,112.600 4.400 C 110.600 4.400,109.200 4.565,109.200 4.800 C 109.200 5.035,107.808 5.200,105.824 5.200 C 103.967 5.200,102.336 5.380,102.200 5.600 C 102.064 5.820,100.793 6.000,99.376 6.000 C 97.925 6.000,96.800 6.175,96.800 6.400 C 96.800 6.629,95.600 6.800,94.000 6.800 C 92.400 6.800,91.200 6.971,91.200 7.200 C 91.200 7.429,90.000 7.600,88.400 7.600 C 86.800 7.600,85.600 7.771,85.600 8.000 C 85.600 8.222,84.533 8.400,83.200 8.400 C 81.867 8.400,80.800 8.578,80.800 8.800 C 80.800 9.020,79.810 9.200,78.600 9.200 C 77.390 9.200,76.400 9.358,76.400 9.552 C 76.400 9.746,74.330 10.033,71.799 10.192 C 69.269 10.350,67.098 10.641,66.976 10.840 C 66.853 11.038,65.874 11.200,64.800 11.200 C 63.726 11.200,62.736 11.380,62.600 11.600 C 62.464 11.820,61.564 12.000,60.600 12.000 C 59.636 12.000,58.736 12.180,58.600 12.400 C 58.464 12.620,57.463 12.800,56.376 12.800 C 55.289 12.800,54.400 12.980,54.400 13.200 C 54.400 13.420,53.500 13.600,52.400 13.600 C 51.300 13.600,50.400 13.780,50.400 14.000 C 50.400 14.220,49.511 14.400,48.424 14.400 C 47.337 14.400,46.336 14.580,46.200 14.800 C 46.064 15.020,45.505 15.200,44.958 15.200 C 43.328 15.200,40.400 18.368,40.400 20.132 C 40.400 20.914,40.220 21.664,40.000 21.800 C 39.780 21.936,39.600 23.556,39.600 25.400 C 39.600 27.244,39.420 28.864,39.200 29.000 C 38.980 29.136,38.800 30.666,38.800 32.400 C 38.800 34.134,38.620 35.664,38.400 35.800 C 38.179 35.937,38.000 37.737,38.000 39.824 C 38.000 42.075,37.838 43.600,37.600 43.600 C 37.359 43.600,37.200 45.267,37.200 47.800 C 37.200 50.333,37.041 52.000,36.800 52.000 C 36.558 52.000,36.400 53.733,36.400 56.400 C 36.400 59.067,36.242 60.800,36.000 60.800 C 35.753 60.800,35.600 62.859,35.600 66.176 C 35.600 69.329,35.435 71.655,35.200 71.800 C 34.962 71.947,34.800 74.463,34.800 78.000 C 34.800 81.537,34.638 84.053,34.400 84.200 C 34.153 84.353,34.000 87.863,34.000 93.400 C 34.000 98.937,33.847 102.447,33.600 102.600 C 33.051 102.939,33.051 139.861,33.600 140.200 C 33.846 140.352,34.000 143.671,34.000 148.824 C 34.000 154.141,34.146 157.200,34.400 157.200 C 34.647 157.200,34.800 159.259,34.800 162.576 C 34.800 165.729,34.965 168.055,35.200 168.200 C 35.421 168.337,35.600 170.137,35.600 172.224 C 35.600 174.475,35.762 176.000,36.000 176.000 C 36.237 176.000,36.400 177.459,36.400 179.576 C 36.400 181.543,36.580 183.264,36.800 183.400 C 37.020 183.536,37.200 184.987,37.200 186.624 C 37.200 188.341,37.369 189.600,37.600 189.600 C 37.826 189.600,38.000 190.733,38.000 192.200 C 38.000 193.667,38.174 194.800,38.400 194.800 C 38.629 194.800,38.800 196.000,38.800 197.600 C 38.800 199.200,38.971 200.400,39.200 200.400 C 39.420 200.400,39.600 201.390,39.600 202.600 C 39.600 203.810,39.780 204.800,40.000 204.800 C 40.220 204.800,40.400 205.700,40.400 206.800 C 40.400 207.900,40.580 208.800,40.800 208.800 C 41.020 208.800,41.200 209.700,41.200 210.800 C 41.200 211.900,41.380 212.800,41.600 212.800 C 41.820 212.800,42.000 213.700,42.000 214.800 C 42.000 215.900,42.180 216.800,42.400 216.800 C 42.620 216.800,42.800 217.610,42.800 218.600 C 42.800 219.590,42.959 220.400,43.153 220.400 C 43.347 220.400,43.632 221.749,43.787 223.397 C 43.941 225.046,44.233 226.496,44.434 226.621 C 44.635 226.745,44.800 227.456,44.800 228.200 C 44.800 228.944,44.960 229.652,45.156 229.773 C 45.492 229.980,45.614 230.473,46.232 234.100 C 46.373 234.925,46.648 235.600,46.844 235.600 C 47.040 235.600,47.200 236.129,47.200 236.776 C 47.200 237.423,47.380 238.064,47.600 238.200 C 47.820 238.336,48.000 238.889,48.000 239.429 C 48.000 239.969,48.162 240.723,48.361 241.105 C 48.560 241.487,48.951 242.610,49.231 243.600 C 49.510 244.590,49.888 245.571,50.070 245.780 C 50.251 245.989,50.400 246.563,50.400 247.056 C 50.400 247.549,50.580 248.064,50.800 248.200 C 51.020 248.336,51.200 248.876,51.200 249.400 C 51.200 249.924,51.380 250.464,51.600 250.600 C 51.820 250.736,52.000 251.287,52.000 251.824 C 52.000 252.361,52.180 252.800,52.400 252.800 C 52.620 252.800,52.800 253.340,52.800 254.000 C 52.800 254.660,52.980 255.200,53.200 255.200 C 53.420 255.200,53.600 255.650,53.600 256.200 C 53.600 256.750,53.780 257.200,54.000 257.200 C 54.220 257.200,54.400 257.560,54.400 258.000 C 54.400 258.440,54.580 258.800,54.800 258.800 C 55.020 258.800,55.200 259.340,55.200 260.000 C 55.200 260.660,55.380 261.200,55.600 261.200 C 55.820 261.200,56.000 261.560,56.000 262.000 C 56.000 262.440,56.180 262.800,56.400 262.800 C 56.620 262.800,56.800 263.340,56.800 264.000 C 56.800 264.660,56.980 265.200,57.200 265.200 C 57.420 265.200,57.600 265.560,57.600 266.000 C 57.600 266.440,57.780 266.800,58.000 266.800 C 58.220 266.800,58.400 267.239,58.400 267.776 C 58.400 268.313,58.580 268.864,58.800 269.000 C 59.020 269.136,59.200 269.597,59.200 270.024 C 59.200 270.451,59.380 270.800,59.600 270.800 C 59.820 270.800,60.000 271.069,60.000 271.397 C 60.000 272.231,61.323 275.200,61.694 275.200 C 61.862 275.200,62.000 275.560,62.000 276.000 C 62.000 276.440,62.180 276.800,62.400 276.800 C 62.620 276.800,62.800 277.160,62.800 277.600 C 62.800 278.040,62.980 278.400,63.200 278.400 C 63.420 278.400,63.600 278.760,63.600 279.200 C 63.600 279.640,63.780 280.000,64.000 280.000 C 64.220 280.000,64.400 280.360,64.400 280.800 C 64.400 281.240,64.580 281.600,64.800 281.600 C 65.020 281.600,65.200 281.960,65.200 282.400 C 65.200 282.840,65.380 283.200,65.600 283.200 C 65.820 283.200,66.000 283.560,66.000 284.000 C 66.000 284.440,66.138 284.800,66.306 284.800 C 66.474 284.800,66.913 285.496,67.282 286.347 C 67.650 287.199,68.188 288.144,68.476 288.447 C 68.764 288.751,69.269 289.540,69.597 290.200 C 69.926 290.860,70.511 291.691,70.897 292.047 C 71.284 292.403,71.600 292.988,71.600 293.347 C 71.600 293.706,71.780 294.000,72.000 294.000 C 72.220 294.000,72.400 294.320,72.400 294.712 C 72.400 295.103,72.760 295.683,73.200 296.000 C 73.640 296.317,74.000 296.857,74.000 297.200 C 74.000 297.543,74.360 298.083,74.800 298.400 C 75.240 298.717,75.600 299.257,75.600 299.600 C 75.600 299.943,75.960 300.483,76.400 300.800 C 76.840 301.117,77.200 301.620,77.200 301.918 C 77.200 302.493,81.285 308.154,82.488 309.247 C 82.880 309.603,83.200 310.076,83.200 310.299 C 83.200 310.521,83.920 311.445,84.800 312.352 C 85.680 313.259,86.400 314.162,86.400 314.360 C 86.400 314.557,87.255 315.598,88.300 316.673 C 89.345 317.747,90.730 319.341,91.377 320.213 C 92.743 322.054,107.929 337.200,108.409 337.200 C 108.586 337.200,109.680 338.100,110.839 339.200 C 111.999 340.300,113.088 341.200,113.260 341.200 C 113.432 341.200,114.203 341.830,114.973 342.600 C 115.743 343.370,116.527 344.000,116.716 344.000 C 116.904 344.000,118.022 344.900,119.200 346.000 C 120.378 347.100,121.540 348.000,121.782 348.000 C 122.025 348.000,122.483 348.360,122.800 348.800 C 123.117 349.240,123.625 349.600,123.928 349.600 C 124.231 349.600,124.983 350.140,125.600 350.800 C 126.217 351.460,126.891 352.000,127.098 352.000 C 127.306 352.000,127.802 352.360,128.200 352.800 C 128.598 353.240,129.086 353.600,129.284 353.600 C 129.482 353.600,130.219 354.139,130.922 354.798 C 131.625 355.457,132.425 355.997,132.700 355.998 C 132.975 355.999,133.200 356.168,133.200 356.373 C 133.200 356.578,133.539 356.854,133.952 356.985 C 134.366 357.116,135.114 357.578,135.614 358.012 C 136.113 358.445,136.815 358.800,137.173 358.800 C 137.531 358.800,138.083 359.160,138.400 359.600 C 138.717 360.040,139.257 360.400,139.600 360.400 C 139.943 360.400,140.483 360.760,140.800 361.200 C 141.117 361.640,141.657 362.000,142.000 362.000 C 142.343 362.000,142.883 362.360,143.200 362.800 C 143.517 363.240,144.007 363.600,144.288 363.600 C 144.570 363.600,144.800 363.780,144.800 364.000 C 144.800 364.220,145.036 364.400,145.325 364.400 C 145.613 364.400,146.236 364.760,146.708 365.200 C 147.180 365.640,147.762 366.000,148.000 366.000 C 148.238 366.000,148.820 366.360,149.292 366.800 C 149.764 367.240,150.387 367.600,150.675 367.600 C 150.964 367.600,151.200 367.780,151.200 368.000 C 151.200 368.220,151.436 368.400,151.725 368.400 C 152.013 368.400,152.636 368.760,153.108 369.200 C 153.580 369.640,154.162 370.000,154.400 370.000 C 154.638 370.000,155.220 370.360,155.692 370.800 C 156.164 371.240,156.787 371.600,157.075 371.600 C 157.364 371.600,157.600 371.780,157.600 372.000 C 157.600 372.220,157.787 372.400,158.016 372.400 C 158.244 372.400,159.367 373.030,160.510 373.800 C 161.654 374.570,162.817 375.200,163.095 375.200 C 163.373 375.200,163.600 375.380,163.600 375.600 C 163.600 375.820,163.836 376.000,164.125 376.000 C 164.413 376.000,165.036 376.360,165.508 376.800 C 165.980 377.240,166.604 377.600,166.895 377.600 C 167.186 377.600,167.683 377.960,168.000 378.400 C 168.317 378.840,168.857 379.200,169.200 379.200 C 169.543 379.200,170.083 379.560,170.400 380.000 C 170.717 380.440,171.257 380.800,171.600 380.800 C 171.943 380.800,172.483 381.160,172.800 381.600 C 173.117 382.040,173.697 382.400,174.088 382.400 C 174.480 382.400,174.800 382.550,174.800 382.732 C 174.800 382.915,175.295 383.319,175.900 383.630 C 176.505 383.940,177.291 384.511,177.647 384.897 C 178.003 385.284,178.498 385.600,178.747 385.600 C 178.996 385.600,179.200 385.741,179.200 385.914 C 179.200 386.086,179.695 386.521,180.300 386.879 C 180.905 387.237,181.940 387.996,182.600 388.565 C 183.260 389.134,183.959 389.599,184.153 389.600 C 184.347 389.600,184.797 389.928,185.153 390.328 C 185.509 390.729,186.423 391.404,187.185 391.828 C 187.946 392.253,189.963 393.995,191.668 395.700 C 193.372 397.405,194.876 398.800,195.011 398.800 C 195.147 398.800,195.527 399.070,195.857 399.400 C 196.710 400.253,203.290 400.253,204.143 399.400 C 204.473 399.070,204.847 398.800,204.975 398.800 C 205.173 398.800,207.158 397.089,208.096 396.109 C 208.259 395.939,209.073 395.080,209.904 394.200 C 210.734 393.320,212.041 392.253,212.807 391.828 C 213.573 391.404,214.491 390.729,214.847 390.328 C 215.203 389.928,215.699 389.600,215.951 389.600 C 216.202 389.600,216.972 389.060,217.663 388.400 C 218.354 387.740,219.122 387.200,219.371 387.200 C 219.620 387.200,220.083 386.840,220.400 386.400 C 220.717 385.960,221.207 385.600,221.488 385.600 C 221.770 385.600,222.000 385.462,222.000 385.294 C 222.000 385.126,222.720 384.544,223.600 384.000 C 224.480 383.456,225.200 382.874,225.200 382.706 C 225.200 382.538,225.520 382.400,225.912 382.400 C 226.303 382.400,226.883 382.040,227.200 381.600 C 227.517 381.160,228.057 380.800,228.400 380.800 C 228.743 380.800,229.283 380.440,229.600 380.000 C 229.917 379.560,230.457 379.200,230.800 379.200 C 231.143 379.200,231.683 378.840,232.000 378.400 C 232.317 377.960,232.814 377.600,233.105 377.600 C 233.396 377.600,234.020 377.240,234.492 376.800 C 234.964 376.360,235.587 376.000,235.875 376.000 C 236.164 376.000,236.400 375.820,236.400 375.600 C 236.400 375.380,236.627 375.200,236.905 375.200 C 237.183 375.200,238.346 374.570,239.490 373.800 C 240.633 373.030,241.756 372.400,241.984 372.400 C 242.213 372.400,242.400 372.220,242.400 372.000 C 242.400 371.780,242.636 371.600,242.925 371.600 C 243.213 371.600,243.836 371.240,244.308 370.800 C 244.780 370.360,245.362 370.000,245.600 370.000 C 245.838 370.000,246.420 369.640,246.892 369.200 C 247.364 368.760,247.987 368.400,248.275 368.400 C 248.564 368.400,248.800 368.220,248.800 368.000 C 248.800 367.780,249.036 367.600,249.325 367.600 C 249.613 367.600,250.236 367.240,250.708 366.800 C 251.180 366.360,251.762 366.000,252.000 366.000 C 252.238 366.000,252.820 365.640,253.292 365.200 C 253.764 364.760,254.387 364.400,254.675 364.400 C 254.964 364.400,255.200 364.220,255.200 364.000 C 255.200 363.780,255.470 363.600,255.800 363.600 C 256.130 363.600,256.400 363.420,256.400 363.200 C 256.400 362.980,256.670 362.800,257.000 362.800 C 257.330 362.800,257.600 362.620,257.600 362.400 C 257.600 362.180,257.830 362.000,258.112 362.000 C 258.393 362.000,258.883 361.640,259.200 361.200 C 259.517 360.760,260.057 360.400,260.400 360.400 C 260.743 360.400,261.283 360.040,261.600 359.600 C 261.917 359.160,262.484 358.800,262.860 358.800 C 263.235 358.800,263.781 358.575,264.071 358.300 C 264.362 358.025,265.095 357.545,265.700 357.232 C 266.305 356.920,266.800 356.515,266.800 356.332 C 266.800 356.150,267.043 356.000,267.341 356.000 C 267.638 356.000,268.406 355.505,269.048 354.900 C 269.689 354.295,270.706 353.545,271.307 353.232 C 271.908 352.920,272.400 352.515,272.400 352.332 C 272.400 352.150,272.606 352.000,272.857 352.000 C 273.108 352.000,273.829 351.460,274.460 350.800 C 275.091 350.140,275.836 349.600,276.115 349.600 C 276.395 349.600,276.883 349.240,277.200 348.800 C 277.517 348.360,277.975 348.000,278.218 348.000 C 278.460 348.000,279.622 347.100,280.800 346.000 C 281.978 344.900,283.107 344.000,283.310 344.000 C 283.513 344.000,284.156 343.505,284.740 342.900 C 285.323 342.295,286.449 341.350,287.242 340.800 C 290.830 338.311,306.148 323.565,308.627 320.213 C 309.272 319.341,310.655 317.747,311.700 316.673 C 312.745 315.598,313.600 314.543,313.600 314.328 C 313.600 314.113,314.320 313.246,315.200 312.400 C 316.080 311.554,316.800 310.660,316.800 310.413 C 316.800 310.166,317.205 309.544,317.700 309.032 C 318.837 307.856,319.557 306.963,320.793 305.200 C 321.332 304.430,321.993 303.574,322.261 303.298 C 322.528 303.021,322.862 302.436,323.001 301.998 C 323.140 301.559,323.394 301.200,323.566 301.200 C 323.738 301.200,324.203 300.480,324.600 299.600 C 324.997 298.720,325.474 298.000,325.661 298.000 C 325.847 298.000,326.000 297.680,326.000 297.288 C 326.000 296.897,326.360 296.317,326.800 296.000 C 327.240 295.683,327.600 295.103,327.600 294.712 C 327.600 294.320,327.780 294.000,328.000 294.000 C 328.220 294.000,328.400 293.680,328.400 293.288 C 328.400 292.897,328.760 292.317,329.200 292.000 C 329.640 291.683,330.000 291.193,330.000 290.912 C 330.000 290.630,330.180 290.400,330.400 290.400 C 330.620 290.400,330.800 290.122,330.800 289.783 C 330.800 289.444,331.160 288.780,331.600 288.308 C 332.040 287.836,332.400 287.213,332.400 286.925 C 332.400 286.636,332.580 286.400,332.800 286.400 C 333.020 286.400,333.200 286.040,333.200 285.600 C 333.200 285.160,333.380 284.800,333.600 284.800 C 333.820 284.800,334.000 284.440,334.000 284.000 C 334.000 283.560,334.180 283.200,334.400 283.200 C 334.620 283.200,334.800 282.840,334.800 282.400 C 334.800 281.960,334.980 281.600,335.200 281.600 C 335.420 281.600,335.600 281.240,335.600 280.800 C 335.600 280.360,335.780 280.000,336.000 280.000 C 336.220 280.000,336.400 279.640,336.400 279.200 C 336.400 278.760,336.580 278.400,336.800 278.400 C 337.020 278.400,337.200 278.040,337.200 277.600 C 337.200 277.160,337.380 276.800,337.600 276.800 C 337.820 276.800,338.000 276.455,338.000 276.033 C 338.000 275.612,338.141 275.207,338.312 275.133 C 338.819 274.917,341.262 269.514,341.493 268.100 C 341.609 267.385,341.861 266.800,342.052 266.800 C 342.244 266.800,342.400 266.440,342.400 266.000 C 342.400 265.560,342.580 265.200,342.800 265.200 C 343.020 265.200,343.200 264.660,343.200 264.000 C 343.200 263.340,343.380 262.800,343.600 262.800 C 343.820 262.800,344.000 262.440,344.000 262.000 C 344.000 261.560,344.180 261.200,344.400 261.200 C 344.620 261.200,344.800 260.660,344.800 260.000 C 344.800 259.340,344.935 258.799,345.100 258.797 C 345.506 258.793,346.400 256.814,346.400 255.920 C 346.400 255.524,346.580 255.200,346.800 255.200 C 347.020 255.200,347.200 254.660,347.200 254.000 C 347.200 253.340,347.380 252.800,347.600 252.800 C 347.820 252.800,348.000 252.361,348.000 251.824 C 348.000 251.287,348.180 250.736,348.400 250.600 C 348.620 250.464,348.800 249.924,348.800 249.400 C 348.800 248.876,348.980 248.336,349.200 248.200 C 349.420 248.064,349.600 247.601,349.600 247.171 C 349.600 246.416,349.744 246.026,350.738 244.105 C 350.992 243.613,351.200 242.769,351.200 242.229 C 351.200 241.689,351.380 241.136,351.600 241.000 C 351.820 240.864,352.000 240.324,352.000 239.800 C 352.000 239.276,352.180 238.736,352.400 238.600 C 352.620 238.464,352.800 237.733,352.800 236.976 C 352.800 236.219,352.960 235.600,353.156 235.600 C 353.352 235.600,353.622 234.970,353.756 234.200 C 353.890 233.430,354.110 232.170,354.244 231.400 C 354.378 230.630,354.648 230.000,354.844 230.000 C 355.040 230.000,355.200 229.280,355.200 228.400 C 355.200 227.520,355.362 226.800,355.560 226.800 C 355.758 226.800,356.011 226.035,356.124 225.100 C 356.236 224.165,356.538 222.590,356.793 221.600 C 357.049 220.610,357.356 219.170,357.476 218.400 C 357.596 217.630,357.837 216.820,358.011 216.600 C 358.185 216.380,358.457 214.535,358.615 212.500 C 358.774 210.465,359.060 208.800,359.252 208.800 C 359.443 208.800,359.600 207.900,359.600 206.800 C 359.600 205.700,359.780 204.800,360.000 204.800 C 360.220 204.800,360.400 203.810,360.400 202.600 C 360.400 201.390,360.580 200.400,360.800 200.400 C 361.029 200.400,361.200 199.200,361.200 197.600 C 361.200 196.000,361.371 194.800,361.600 194.800 C 361.826 194.800,362.000 193.667,362.000 192.200 C 362.000 190.733,362.174 189.600,362.400 189.600 C 362.631 189.600,362.800 188.341,362.800 186.624 C 362.800 184.987,362.980 183.536,363.200 183.400 C 363.420 183.264,363.600 181.543,363.600 179.576 C 363.600 177.459,363.763 176.000,364.000 176.000 C 364.238 176.000,364.400 174.475,364.400 172.224 C 364.400 170.137,364.579 168.337,364.800 168.200 C 365.035 168.055,365.200 165.729,365.200 162.576 C 365.200 159.259,365.353 157.200,365.600 157.200 C 365.854 157.200,366.000 154.208,366.000 149.024 C 366.000 144.004,366.154 140.752,366.400 140.600 C 366.657 140.441,366.800 133.670,366.800 121.600 C 366.800 109.530,366.657 102.759,366.400 102.600 C 366.153 102.447,366.000 98.937,366.000 93.400 C 366.000 87.863,365.847 84.353,365.600 84.200 C 365.362 84.053,365.200 81.537,365.200 78.000 C 365.200 74.463,365.038 71.947,364.800 71.800 C 364.565 71.655,364.400 69.329,364.400 66.176 C 364.400 62.859,364.247 60.800,364.000 60.800 C 363.758 60.800,363.600 59.067,363.600 56.400 C 363.600 53.733,363.442 52.000,363.200 52.000 C 362.959 52.000,362.800 50.333,362.800 47.800 C 362.800 45.267,362.641 43.600,362.400 43.600 C 362.162 43.600,362.000 42.075,362.000 39.824 C 362.000 37.737,361.821 35.937,361.600 35.800 C 361.380 35.664,361.200 34.134,361.200 32.400 C 361.200 30.666,361.020 29.136,360.800 29.000 C 360.580 28.864,360.400 27.244,360.400 25.400 C 360.400 23.556,360.220 21.936,360.000 21.800 C 359.780 21.664,359.600 20.843,359.600 19.976 C 359.600 19.109,359.420 18.400,359.200 18.400 C 358.980 18.400,358.800 18.180,358.800 17.912 C 358.800 17.077,356.257 15.202,355.124 15.201 C 354.532 15.200,353.936 15.020,353.800 14.800 C 353.664 14.580,352.663 14.400,351.576 14.400 C 350.489 14.400,349.600 14.220,349.600 14.000 C 349.600 13.780,348.700 13.600,347.600 13.600 C 346.500 13.600,345.600 13.420,345.600 13.200 C 345.600 12.980,344.736 12.800,343.680 12.800 C 342.624 12.800,341.589 12.638,341.380 12.441 C 341.008 12.089,339.406 11.795,335.400 11.343 C 334.300 11.219,333.220 10.975,333.000 10.800 C 332.780 10.625,330.662 10.352,328.294 10.193 C 325.925 10.034,323.890 9.745,323.770 9.552 C 323.651 9.358,322.573 9.200,321.376 9.200 C 320.179 9.200,319.200 9.020,319.200 8.800 C 319.200 8.578,318.133 8.400,316.800 8.400 C 315.467 8.400,314.400 8.222,314.400 8.000 C 314.400 7.771,313.200 7.600,311.600 7.600 C 310.000 7.600,308.800 7.429,308.800 7.200 C 308.800 6.975,307.675 6.800,306.224 6.800 C 304.807 6.800,303.536 6.620,303.400 6.400 C 303.264 6.180,302.004 6.000,300.600 6.000 C 299.196 6.000,297.936 5.820,297.800 5.600 C 297.664 5.380,296.033 5.200,294.176 5.200 C 292.192 5.200,290.800 5.035,290.800 4.800 C 290.800 4.565,289.400 4.400,287.400 4.400 C 285.400 4.400,284.000 4.235,284.000 4.000 C 284.000 3.763,282.533 3.600,280.400 3.600 C 278.267 3.600,276.800 3.437,276.800 3.200 C 276.800 2.959,275.133 2.800,272.600 2.800 C 270.067 2.800,268.400 2.641,268.400 2.400 C 268.400 2.158,266.667 2.000,264.000 2.000 C 261.333 2.000,259.600 1.842,259.600 1.600 C 259.600 1.352,257.427 1.200,253.880 1.200 C 249.976 1.200,248.008 1.048,247.682 0.722 C 247.212 0.252,178.305 -0.098,159.810 0.274 M238.000 12.759 C 240.970 12.982,246.550 13.361,250.400 13.601 C 254.250 13.841,259.200 14.204,261.400 14.407 C 263.600 14.610,267.650 14.970,270.400 15.207 C 273.150 15.444,276.750 15.802,278.400 16.003 C 280.050 16.204,283.200 16.559,285.400 16.792 C 290.843 17.369,295.759 17.977,298.400 18.400 C 299.610 18.594,302.220 18.955,304.200 19.203 C 315.913 20.670,347.025 26.101,347.754 26.805 C 347.948 26.993,348.258 28.644,348.443 30.474 C 348.627 32.303,348.970 35.510,349.204 37.600 C 349.875 43.602,350.684 52.229,351.603 63.200 C 355.165 105.726,354.674 154.760,350.380 185.300 C 347.778 203.805,345.471 215.465,341.535 230.000 C 336.187 249.751,327.763 270.140,318.907 284.767 C 315.098 291.057,305.706 304.581,304.438 305.600 C 304.301 305.710,303.382 306.790,302.395 308.000 C 295.035 317.025,279.364 331.732,270.252 338.166 C 269.343 338.808,267.312 340.290,265.737 341.461 C 262.681 343.732,244.933 355.600,244.591 355.600 C 244.479 355.600,243.445 356.208,242.294 356.950 C 241.142 357.693,237.140 360.240,233.400 362.611 C 229.660 364.982,224.530 368.237,222.000 369.846 C 217.496 372.708,208.231 379.171,206.881 380.391 C 206.507 380.730,205.390 381.634,204.400 382.399 C 203.410 383.165,202.152 384.199,201.604 384.696 C 200.171 385.997,200.014 385.935,195.499 382.289 C 191.305 378.901,187.106 375.787,183.200 373.168 C 177.530 369.366,153.292 354.000,152.965 354.000 C 152.580 354.000,136.861 343.271,132.360 339.935 C 122.348 332.516,116.784 327.712,106.027 317.200 C 104.348 315.559,100.271 311.022,96.852 306.989 C 92.484 301.837,85.938 292.594,82.071 286.118 C 78.012 279.322,71.200 266.331,71.200 265.387 C 71.200 265.291,70.660 264.098,70.000 262.735 C 69.340 261.373,68.800 260.108,68.800 259.925 C 68.800 259.741,68.457 258.828,68.037 257.896 C 64.834 250.775,59.396 234.065,56.877 223.600 C 54.956 215.622,54.172 212.077,53.600 208.800 C 53.351 207.370,52.991 205.480,52.800 204.600 C 52.399 202.747,51.839 199.460,51.200 195.200 C 50.952 193.550,50.592 191.210,50.399 190.000 C 50.070 187.941,49.843 186.150,48.826 177.600 C 48.435 174.309,48.051 169.878,47.217 159.000 C 44.801 127.512,46.207 80.112,50.777 39.000 C 50.972 37.240,51.335 33.826,51.583 31.414 C 52.115 26.225,51.463 26.771,58.734 25.423 C 70.679 23.208,72.661 22.851,75.400 22.415 C 76.940 22.170,79.190 21.804,80.400 21.601 C 81.610 21.397,83.815 21.044,85.300 20.816 C 86.785 20.587,89.125 20.226,90.500 20.014 C 99.522 18.621,108.584 17.405,114.400 16.807 C 116.710 16.569,119.950 16.209,121.600 16.007 C 124.388 15.664,126.520 15.467,138.800 14.416 C 148.901 13.551,167.347 12.446,175.200 12.235 C 184.942 11.974,232.867 12.373,238.000 12.759 M171.784 29.199 C 166.495 29.370,159.925 29.703,157.184 29.938 C 154.443 30.173,148.960 30.557,145.000 30.791 C 138.270 31.189,135.345 31.447,126.800 32.400 C 124.930 32.608,121.600 32.968,119.400 33.200 C 110.472 34.140,103.324 35.003,99.200 35.640 C 95.150 36.265,92.046 36.734,89.000 37.182 C 86.503 37.550,84.181 37.910,73.285 39.620 C 68.088 40.435,66.979 42.091,66.375 49.928 C 66.160 52.718,65.804 57.160,65.584 59.800 C 64.049 78.172,63.657 84.663,63.011 102.400 C 62.386 119.550,62.636 141.723,63.605 155.000 C 64.901 172.780,65.190 175.606,67.050 188.800 C 71.859 222.892,82.002 253.992,95.669 276.547 C 98.181 280.691,102.397 287.241,102.786 287.600 C 102.905 287.710,103.808 288.880,104.794 290.200 C 106.503 292.489,111.002 297.974,113.981 301.400 C 117.419 305.355,127.831 315.377,131.000 317.784 C 132.100 318.619,134.350 320.413,136.000 321.771 C 142.797 327.365,153.926 334.896,172.984 346.799 C 179.795 351.053,187.988 356.276,191.191 358.407 C 200.519 364.613,199.319 364.701,211.112 356.939 C 215.574 354.003,219.311 351.600,219.417 351.600 C 219.600 351.600,221.141 350.626,228.696 345.734 C 230.509 344.560,232.091 343.600,232.212 343.600 C 232.333 343.600,232.920 343.260,233.516 342.846 C 234.112 342.431,237.030 340.537,240.000 338.639 C 246.651 334.386,249.359 332.560,256.972 327.191 C 258.743 325.941,265.418 320.747,267.706 318.839 C 273.284 314.183,282.194 305.726,285.234 302.200 C 295.056 290.809,298.791 285.755,304.892 275.600 C 310.985 265.459,320.354 243.989,322.784 234.600 C 322.954 233.940,323.662 231.469,324.356 229.109 C 325.937 223.733,328.532 213.435,329.170 210.000 C 329.436 208.570,329.812 206.680,330.006 205.800 C 330.587 203.165,331.105 200.374,331.600 197.200 C 331.857 195.550,332.222 193.390,332.409 192.400 C 332.730 190.707,333.062 188.287,333.989 180.900 C 334.816 174.305,335.177 170.799,335.583 165.400 C 335.816 162.320,336.194 157.460,336.425 154.600 C 337.093 146.323,337.346 112.039,336.838 98.600 C 336.303 84.432,335.998 79.620,334.392 60.000 C 334.185 57.470,333.830 52.976,333.602 50.014 C 332.995 42.095,331.932 40.577,326.349 39.662 C 324.727 39.396,322.365 39.003,321.100 38.789 C 317.201 38.129,314.326 37.669,311.200 37.204 C 309.550 36.958,307.300 36.600,306.200 36.408 C 304.195 36.058,300.383 35.541,294.399 34.808 C 292.638 34.592,289.623 34.222,287.699 33.987 C 285.774 33.751,282.940 33.397,281.400 33.198 C 270.884 31.846,267.997 32.944,268.001 38.294 C 268.006 43.478,268.851 43.760,292.400 46.427 C 294.490 46.663,298.450 47.201,301.200 47.622 C 303.950 48.042,307.550 48.583,309.200 48.823 C 310.850 49.063,313.010 49.414,314.000 49.604 C 314.990 49.794,316.752 50.058,317.916 50.191 C 322.314 50.692,321.650 48.413,323.221 68.400 C 323.437 71.150,323.786 75.470,323.996 78.000 C 325.455 95.568,325.458 156.714,324.000 158.130 C 323.826 158.299,320.099 157.822,307.600 156.030 C 300.312 154.985,292.651 154.021,288.400 153.613 C 285.870 153.371,282.180 152.999,280.200 152.788 C 267.156 151.398,263.010 151.080,238.800 149.612 C 235.170 149.392,227.091 149.113,220.847 148.991 C 214.602 148.870,208.707 148.662,207.745 148.530 L 205.997 148.291 206.099 94.445 L 206.200 40.600 215.800 40.723 C 221.080 40.791,228.010 41.014,231.200 41.219 C 234.390 41.424,239.472 41.628,242.494 41.671 L 247.988 41.749 249.494 40.536 C 253.158 37.584,252.052 31.599,247.622 30.406 C 243.387 29.266,193.975 28.479,171.784 29.199 M194.157 41.033 C 194.729 42.522,194.421 147.884,193.844 148.363 C 193.467 148.677,188.560 148.949,178.544 149.214 C 170.435 149.428,160.920 149.779,157.400 149.994 C 138.241 151.164,133.903 151.487,125.000 152.408 C 122.800 152.636,119.245 152.997,117.100 153.211 C 104.773 154.440,105.419 154.364,96.700 155.616 C 95.105 155.846,92.450 156.190,90.800 156.381 C 89.150 156.572,86.360 156.937,84.600 157.191 C 77.737 158.184,76.191 158.342,75.944 158.076 C 75.267 157.346,74.667 139.183,74.725 121.200 C 74.800 98.260,75.304 85.177,76.797 67.400 C 77.000 64.980,77.386 60.268,77.654 56.928 C 78.213 49.978,77.685 50.667,83.000 49.949 C 84.760 49.711,87.100 49.369,88.200 49.190 C 91.308 48.683,95.116 48.094,98.400 47.613 C 100.050 47.371,102.570 46.990,104.000 46.765 C 105.430 46.540,108.130 46.192,110.000 45.992 C 111.870 45.791,115.065 45.441,117.100 45.214 C 121.649 44.705,127.042 44.108,131.800 43.587 C 135.190 43.215,139.173 42.904,152.000 42.009 C 161.421 41.352,178.744 40.626,188.457 40.481 C 193.114 40.412,193.950 40.493,194.157 41.033 M194.000 199.200 C 194.191 236.151,194.232 237.847,194.953 238.910 C 197.500 242.668,202.553 242.612,204.928 238.800 L 205.800 237.400 205.912 199.208 C 205.973 178.203,206.154 160.886,206.314 160.726 C 206.661 160.379,234.611 161.054,242.600 161.602 C 245.680 161.814,251.260 162.171,255.000 162.397 C 261.790 162.807,266.829 163.223,274.000 163.968 C 279.829 164.573,285.808 165.184,290.000 165.604 C 293.821 165.986,296.687 166.349,302.600 167.200 C 304.360 167.453,306.970 167.821,308.400 168.018 C 312.866 168.632,316.894 169.181,319.754 169.566 C 323.892 170.122,323.765 169.643,322.400 179.600 C 322.204 181.030,321.839 183.730,321.590 185.600 C 320.937 190.492,319.828 197.279,319.205 200.200 C 319.017 201.080,318.663 202.880,318.418 204.200 C 318.173 205.520,317.805 207.320,317.601 208.200 C 312.204 231.499,307.789 244.402,299.602 260.803 C 295.120 269.783,286.706 282.783,282.129 287.800 C 281.728 288.240,279.934 290.314,278.144 292.409 C 271.732 299.909,258.565 311.773,249.836 317.914 C 246.858 320.009,232.972 329.208,229.514 331.377 C 228.131 332.244,225.412 333.999,223.472 335.277 C 221.531 336.554,219.858 337.600,219.754 337.600 C 219.649 337.600,218.267 338.472,216.682 339.538 C 215.097 340.604,213.612 341.549,213.381 341.638 C 213.151 341.727,211.590 342.677,209.913 343.750 C 208.235 344.822,206.714 345.677,206.532 345.650 C 206.349 345.623,206.110 326.835,206.000 303.900 C 205.775 257.016,206.036 260.667,202.782 258.838 C 200.023 257.288,196.943 257.955,195.132 260.494 L 194.200 261.800 194.097 303.200 C 194.041 325.970,193.905 344.842,193.796 345.137 C 193.562 345.766,192.204 345.033,185.280 340.536 C 182.794 338.921,180.666 337.600,180.552 337.600 C 180.438 337.600,179.592 337.084,178.672 336.453 C 177.752 335.822,175.020 334.051,172.600 332.518 C 155.497 321.684,149.894 317.794,141.400 310.860 C 132.018 303.200,121.959 292.974,115.371 284.400 C 113.242 281.628,106.400 271.387,106.400 270.972 C 106.400 270.835,106.046 270.227,105.614 269.620 C 101.166 263.373,91.431 241.070,88.363 230.100 C 88.018 228.865,87.670 227.640,86.828 224.700 C 82.937 211.117,79.897 195.719,78.010 180.042 C 77.570 176.389,77.120 172.747,77.008 171.949 C 76.779 170.302,76.824 170.281,82.100 169.566 C 86.095 169.024,89.849 168.485,93.000 168.000 C 99.114 167.059,106.739 166.065,111.400 165.603 C 113.380 165.407,116.845 165.056,119.100 164.823 C 133.683 163.319,137.770 162.969,147.200 162.420 C 150.830 162.208,156.860 161.838,160.600 161.598 C 166.703 161.205,190.295 160.441,192.800 160.555 L 193.800 160.600 194.000 199.200 " stroke="none" fill="#080707" fill-rule="evenodd"></path><path id="path2" d="M186.245 41.088 C 186.086 41.247,180.431 41.519,173.678 41.692 C 166.925 41.865,158.880 42.183,155.800 42.398 C 152.720 42.613,147.590 42.963,144.400 43.177 C 141.210 43.391,136.710 43.756,134.400 43.990 C 130.465 44.387,128.515 44.600,119.700 45.595 C 117.775 45.812,114.580 46.166,112.600 46.381 C 110.620 46.596,107.740 46.953,106.200 47.175 C 101.455 47.859,98.279 48.314,96.400 48.576 C 91.019 49.329,90.496 49.566,90.225 51.370 C 88.709 61.483,88.102 122.073,89.272 146.534 L 89.728 156.069 90.764 155.800 C 91.334 155.652,93.015 155.366,94.500 155.165 C 95.985 154.964,98.505 154.620,100.100 154.401 C 103.854 153.883,107.580 153.473,122.000 151.990 C 131.695 150.992,133.703 150.815,139.800 150.422 C 143.320 150.195,148.900 149.825,152.200 149.600 C 155.500 149.376,162.970 149.023,168.800 148.817 C 174.630 148.612,182.595 148.318,186.500 148.166 L 193.600 147.890 193.600 94.345 L 193.600 40.800 190.067 40.800 C 188.123 40.800,186.404 40.930,186.245 41.088 M206.400 199.131 C 206.400 225.019,206.264 237.507,205.975 238.274 C 205.488 239.561,203.668 241.600,203.005 241.600 C 202.760 241.600,202.075 241.825,201.483 242.100 L 200.406 242.600 200.403 250.100 L 200.400 257.600 201.522 257.600 C 202.812 257.600,205.142 259.576,205.908 261.319 C 206.287 262.180,206.400 271.961,206.400 303.822 L 206.400 345.207 207.300 344.703 C 207.795 344.427,208.290 344.110,208.400 343.999 C 208.510 343.889,209.095 343.544,209.700 343.232 C 210.305 342.920,210.800 342.515,210.800 342.332 C 210.800 342.150,210.990 342.000,211.222 342.000 C 211.454 342.000,212.704 341.280,214.000 340.400 C 215.296 339.520,216.546 338.800,216.778 338.800 C 217.010 338.800,217.200 338.620,217.200 338.400 C 217.200 338.180,217.388 338.000,217.618 338.000 C 217.848 338.000,219.370 337.100,221.000 336.000 C 222.630 334.900,224.152 334.000,224.382 334.000 C 224.612 334.000,224.800 333.853,224.800 333.674 C 224.800 333.495,225.385 333.048,226.100 332.681 C 226.815 332.314,229.083 330.931,231.140 329.607 C 233.197 328.283,235.042 327.200,235.240 327.200 C 235.438 327.200,235.600 327.020,235.600 326.800 C 235.600 326.580,235.870 326.400,236.200 326.400 C 236.530 326.400,236.800 326.220,236.800 326.000 C 236.800 325.780,237.070 325.600,237.400 325.600 C 237.730 325.600,238.000 325.420,238.000 325.200 C 238.000 324.980,238.236 324.800,238.525 324.800 C 238.813 324.800,239.436 324.440,239.908 324.000 C 240.380 323.560,240.880 323.200,241.018 323.200 C 241.258 323.200,244.783 320.830,245.200 320.388 C 245.310 320.272,247.229 318.880,249.463 317.296 C 251.698 315.712,253.768 314.181,254.063 313.895 C 254.359 313.608,255.230 312.934,256.000 312.396 C 256.770 311.858,257.774 311.053,258.231 310.609 C 258.688 310.164,259.670 309.350,260.415 308.800 C 263.455 306.554,274.304 295.959,278.003 291.625 C 279.211 290.209,280.755 288.409,281.433 287.625 C 282.111 286.841,283.609 284.940,284.762 283.400 C 285.914 281.860,287.101 280.299,287.398 279.932 C 287.695 279.564,288.156 278.855,288.423 278.357 C 288.690 277.858,289.244 277.090,289.654 276.650 C 290.064 276.209,290.400 275.696,290.400 275.508 C 290.400 275.320,290.760 274.780,291.200 274.308 C 291.640 273.836,292.000 273.213,292.000 272.925 C 292.000 272.636,292.159 272.400,292.353 272.400 C 292.548 272.400,292.807 272.085,292.929 271.700 C 293.146 271.015,294.404 268.796,294.800 268.400 C 295.565 267.635,302.129 254.339,304.081 249.600 C 304.308 249.050,304.652 248.287,304.847 247.905 C 305.041 247.523,305.200 246.938,305.200 246.605 C 305.200 246.272,305.380 246.000,305.600 246.000 C 305.820 246.000,306.000 245.561,306.000 245.024 C 306.000 244.487,306.180 243.936,306.400 243.800 C 306.620 243.664,306.800 243.203,306.800 242.776 C 306.800 242.349,306.980 242.000,307.200 242.000 C 307.420 242.000,307.600 241.561,307.600 241.024 C 307.600 240.487,307.780 239.936,308.000 239.800 C 308.220 239.664,308.400 239.124,308.400 238.600 C 308.400 238.076,308.580 237.536,308.800 237.400 C 309.020 237.264,309.200 236.713,309.200 236.176 C 309.200 235.639,309.380 235.200,309.600 235.200 C 309.820 235.200,310.003 234.885,310.006 234.500 C 310.013 233.682,310.927 230.939,311.326 230.541 C 311.477 230.390,311.600 229.904,311.600 229.462 C 311.600 229.019,311.776 228.104,311.992 227.428 C 313.356 223.148,316.062 212.308,317.190 206.600 C 317.451 205.280,317.821 203.480,318.011 202.600 C 318.716 199.334,318.869 198.548,319.230 196.300 C 319.434 195.035,319.786 192.875,320.014 191.500 C 321.021 185.420,321.966 177.990,322.246 173.951 C 322.491 170.426,322.844 170.710,317.282 169.961 C 315.587 169.733,313.030 169.376,311.600 169.167 C 310.170 168.959,307.560 168.598,305.800 168.365 C 304.040 168.132,301.430 167.775,300.000 167.573 C 296.724 167.109,291.205 166.450,286.800 165.995 C 284.930 165.802,281.510 165.443,279.200 165.199 C 259.626 163.124,240.036 161.916,217.100 161.370 L 206.400 161.115 206.400 199.131 " stroke="none" fill="#e2eaf2" fill-rule="evenodd"></path><path id="path3" d="M175.200 12.235 C 167.347 12.446,148.901 13.551,138.800 14.416 C 126.520 15.467,124.388 15.664,121.600 16.007 C 119.950 16.209,116.710 16.569,114.400 16.807 C 108.584 17.405,99.522 18.621,90.500 20.014 C 89.125 20.226,86.785 20.587,85.300 20.816 C 83.815 21.044,81.610 21.397,80.400 21.601 C 79.190 21.804,76.940 22.170,75.400 22.415 C 72.661 22.851,70.679 23.208,58.734 25.423 C 51.463 26.771,52.115 26.225,51.583 31.414 C 51.335 33.826,50.972 37.240,50.777 39.000 C 46.207 80.112,44.801 127.512,47.217 159.000 C 48.051 169.878,48.435 174.309,48.826 177.600 C 49.843 186.150,50.070 187.941,50.399 190.000 C 50.592 191.210,50.952 193.550,51.200 195.200 C 51.839 199.460,52.399 202.747,52.800 204.600 C 52.991 205.480,53.351 207.370,53.600 208.800 C 54.172 212.077,54.956 215.622,56.877 223.600 C 59.396 234.065,64.834 250.775,68.037 257.896 C 68.457 258.828,68.800 259.741,68.800 259.925 C 68.800 260.108,69.340 261.373,70.000 262.735 C 70.660 264.098,71.200 265.291,71.200 265.387 C 71.200 266.331,78.012 279.322,82.071 286.118 C 85.938 292.594,92.484 301.837,96.852 306.989 C 100.271 311.022,104.348 315.559,106.027 317.200 C 116.784 327.712,122.348 332.516,132.360 339.935 C 136.861 343.271,152.580 354.000,152.965 354.000 C 153.292 354.000,177.530 369.366,183.200 373.168 C 187.106 375.787,191.305 378.901,195.499 382.289 C 200.014 385.935,200.171 385.997,201.604 384.696 C 202.152 384.199,203.410 383.165,204.400 382.399 C 205.390 381.634,206.507 380.730,206.881 380.391 C 208.231 379.171,217.496 372.708,222.000 369.846 C 224.530 368.237,229.660 364.982,233.400 362.611 C 237.140 360.240,241.142 357.693,242.294 356.950 C 243.445 356.208,244.479 355.600,244.591 355.600 C 244.933 355.600,262.681 343.732,265.737 341.461 C 267.312 340.290,269.343 338.808,270.252 338.166 C 279.364 331.732,295.035 317.025,302.395 308.000 C 303.382 306.790,304.301 305.710,304.438 305.600 C 304.575 305.490,306.095 303.517,307.816 301.215 C 318.349 287.130,325.742 273.804,332.787 256.200 C 340.494 236.944,345.948 215.715,349.591 190.798 C 350.763 182.783,351.209 179.038,351.976 170.800 C 353.689 152.390,354.123 139.862,353.865 116.200 C 353.644 95.866,353.423 89.415,352.431 74.400 C 351.729 63.768,350.268 47.113,349.204 37.600 C 348.970 35.510,348.627 32.303,348.443 30.474 C 348.258 28.644,347.948 26.994,347.754 26.806 C 347.376 26.443,328.646 22.800,327.153 22.800 C 325.621 22.800,326.736 23.348,328.914 23.665 C 330.061 23.832,331.990 24.160,333.200 24.393 C 334.410 24.626,336.348 24.926,337.507 25.059 C 338.666 25.192,339.712 25.458,339.831 25.650 C 339.950 25.843,340.836 26.000,341.800 26.000 C 342.764 26.000,343.664 26.180,343.800 26.400 C 343.936 26.620,344.762 26.800,345.636 26.800 C 347.553 26.800,347.476 26.614,348.032 32.600 C 348.277 35.240,348.626 38.750,348.807 40.400 C 349.860 50.005,351.301 67.103,352.010 78.400 C 354.007 110.214,353.685 148.698,351.233 171.400 C 351.019 173.380,350.659 176.800,350.434 179.000 C 350.024 182.997,349.612 186.126,348.800 191.400 C 348.563 192.940,348.211 195.370,348.019 196.800 C 347.826 198.230,347.386 200.840,347.040 202.600 C 346.694 204.360,346.236 206.880,346.022 208.200 C 345.807 209.520,345.433 211.500,345.190 212.600 C 344.947 213.700,344.651 215.276,344.532 216.103 C 344.413 216.929,344.155 217.705,343.958 217.826 C 343.761 217.948,343.600 218.746,343.600 219.600 C 343.600 220.454,343.420 221.264,343.200 221.400 C 342.980 221.536,342.800 222.357,342.800 223.224 C 342.800 224.091,342.620 224.800,342.400 224.800 C 342.180 224.800,342.000 225.419,342.000 226.176 C 342.000 226.933,341.820 227.664,341.600 227.800 C 341.380 227.936,341.200 228.566,341.200 229.200 C 341.200 229.834,341.020 230.464,340.800 230.600 C 340.580 230.736,340.400 231.366,340.400 232.000 C 340.400 232.634,340.220 233.264,340.000 233.400 C 339.780 233.536,339.600 234.166,339.600 234.800 C 339.600 235.434,339.420 236.064,339.200 236.200 C 338.980 236.336,338.800 236.977,338.800 237.624 C 338.800 238.271,338.620 238.800,338.400 238.800 C 338.180 238.800,338.000 239.239,338.000 239.776 C 338.000 240.313,337.820 240.864,337.600 241.000 C 337.380 241.136,337.200 241.676,337.200 242.200 C 337.200 242.724,337.020 243.264,336.800 243.400 C 336.580 243.536,336.400 244.076,336.400 244.600 C 336.400 245.124,336.220 245.664,336.000 245.800 C 335.780 245.936,335.600 246.399,335.600 246.829 C 335.600 247.259,335.431 247.923,335.223 248.305 C 335.016 248.687,333.917 251.430,332.781 254.400 C 329.910 261.902,326.658 269.393,324.966 272.400 C 324.657 272.950,323.916 274.390,323.321 275.600 C 322.725 276.810,322.132 277.890,322.002 278.000 C 321.872 278.110,321.504 278.742,321.183 279.404 C 320.088 281.663,313.645 292.167,312.105 294.203 C 311.937 294.424,310.993 295.774,310.007 297.203 C 308.296 299.681,307.502 300.736,306.587 301.745 C 306.360 301.995,305.738 302.830,305.206 303.600 C 304.673 304.370,303.954 305.270,303.608 305.600 C 303.261 305.930,302.352 307.010,301.589 307.999 C 298.033 312.606,286.040 324.485,279.375 330.000 C 277.381 331.650,274.883 333.720,273.823 334.600 C 272.764 335.480,271.470 336.467,270.948 336.793 C 270.427 337.119,270.000 337.524,270.000 337.693 C 270.000 337.862,269.730 338.000,269.400 338.000 C 269.070 338.000,268.800 338.138,268.800 338.306 C 268.800 338.474,268.080 339.056,267.200 339.600 C 266.320 340.144,265.600 340.684,265.600 340.800 C 265.600 340.916,264.880 341.456,264.000 342.000 C 263.120 342.544,262.400 343.126,262.400 343.294 C 262.400 343.462,262.175 343.600,261.900 343.601 C 261.625 343.601,260.770 344.141,260.000 344.800 C 259.230 345.459,258.471 345.999,258.312 345.999 C 258.154 346.000,256.045 347.350,253.626 349.000 C 251.207 350.650,249.124 352.000,248.997 352.000 C 248.870 352.000,248.380 352.360,247.908 352.800 C 247.436 353.240,246.813 353.600,246.525 353.600 C 246.236 353.600,246.000 353.780,246.000 354.000 C 246.000 354.220,245.764 354.400,245.475 354.400 C 245.187 354.400,244.594 354.715,244.158 355.100 C 243.153 355.988,241.209 357.183,240.300 357.471 C 239.915 357.593,239.600 357.852,239.600 358.047 C 239.600 358.241,239.364 358.400,239.075 358.400 C 238.787 358.400,238.202 358.717,237.775 359.104 C 237.349 359.491,236.145 360.256,235.100 360.803 C 234.055 361.351,233.200 361.934,233.200 362.099 C 233.200 362.265,233.020 362.400,232.801 362.400 C 232.581 362.400,230.196 363.837,227.501 365.593 C 224.805 367.349,222.015 369.080,221.300 369.438 C 220.585 369.797,220.000 370.251,220.000 370.446 C 220.000 370.641,219.810 370.800,219.578 370.800 C 219.179 370.800,214.426 373.858,214.000 374.389 C 213.890 374.526,213.170 375.071,212.400 375.600 C 211.630 376.129,210.910 376.678,210.800 376.821 C 210.690 376.964,210.180 377.302,209.666 377.572 C 209.152 377.843,208.342 378.390,207.866 378.788 C 204.185 381.865,200.371 384.800,200.054 384.800 C 199.716 384.800,195.475 381.574,191.600 378.368 C 190.830 377.731,190.067 377.208,189.905 377.205 C 189.619 377.200,188.474 376.334,187.384 375.300 C 187.094 375.025,186.679 374.800,186.462 374.800 C 186.245 374.800,186.007 374.650,185.933 374.468 C 185.794 374.121,178.588 369.200,178.220 369.200 C 177.020 369.200,156.020 348.986,149.339 341.400 C 144.388 335.779,141.808 332.681,139.344 329.400 C 136.577 325.715,133.600 321.358,133.600 320.995 C 133.600 320.757,137.742 323.848,139.367 325.300 C 139.798 325.685,140.347 326.000,140.587 326.000 C 140.827 326.000,141.283 326.360,141.600 326.800 C 141.917 327.240,142.373 327.600,142.613 327.600 C 142.853 327.600,143.398 327.920,143.825 328.311 C 144.251 328.702,145.230 329.458,146.000 329.992 C 146.770 330.525,147.490 331.082,147.600 331.229 C 147.788 331.480,155.214 336.361,159.200 338.854 C 160.190 339.473,161.217 340.164,161.483 340.389 C 161.749 340.615,162.076 340.800,162.211 340.800 C 162.346 340.800,163.241 341.340,164.200 342.000 C 165.159 342.660,166.137 343.200,166.372 343.200 C 166.607 343.200,166.800 343.380,166.800 343.600 C 166.800 343.820,167.070 344.000,167.400 344.000 C 167.730 344.000,168.000 344.180,168.000 344.400 C 168.000 344.620,168.270 344.800,168.600 344.800 C 168.930 344.800,169.200 344.980,169.200 345.200 C 169.200 345.420,169.390 345.600,169.622 345.600 C 169.854 345.600,171.104 346.320,172.400 347.200 C 173.696 348.080,174.946 348.800,175.178 348.800 C 175.410 348.800,175.600 348.980,175.600 349.200 C 175.600 349.420,175.760 349.600,175.956 349.600 C 176.152 349.600,178.502 350.995,181.179 352.700 C 183.855 354.405,186.595 356.123,187.269 356.518 C 187.942 356.913,188.743 357.486,189.049 357.792 C 189.355 358.097,189.964 358.462,190.402 358.601 C 190.841 358.740,191.200 359.022,191.200 359.227 C 191.200 359.432,191.436 359.600,191.725 359.600 C 192.013 359.600,192.598 359.915,193.025 360.300 C 193.451 360.685,194.295 361.255,194.900 361.568 C 195.505 361.880,196.000 362.285,196.000 362.468 C 196.000 362.650,196.360 362.800,196.800 362.800 C 197.240 362.800,197.600 362.980,197.600 363.200 C 197.600 363.771,201.635 363.695,202.917 363.100 C 203.509 362.825,203.995 362.465,203.997 362.300 C 203.999 362.135,204.270 362.000,204.600 362.000 C 204.930 362.000,205.200 361.820,205.200 361.600 C 205.200 361.380,205.470 361.200,205.800 361.200 C 206.130 361.200,206.400 361.020,206.400 360.800 C 206.400 360.580,206.670 360.400,207.000 360.400 C 207.330 360.400,207.600 360.220,207.600 360.000 C 207.600 359.780,207.870 359.600,208.200 359.600 C 208.530 359.600,208.800 359.449,208.800 359.264 C 208.800 359.080,209.257 358.720,209.815 358.466 C 210.373 358.212,211.048 357.818,211.315 357.591 C 211.808 357.172,212.195 356.924,219.600 352.264 C 221.910 350.811,224.017 349.437,224.283 349.211 C 224.549 348.985,224.874 348.800,225.005 348.800 C 225.136 348.800,226.304 348.080,227.600 347.200 C 228.896 346.320,230.146 345.600,230.378 345.600 C 230.610 345.600,230.800 345.420,230.800 345.200 C 230.800 344.980,230.990 344.800,231.222 344.800 C 231.454 344.800,232.704 344.080,234.000 343.200 C 235.296 342.320,236.546 341.600,236.778 341.600 C 237.010 341.600,237.200 341.420,237.200 341.200 C 237.200 340.980,237.396 340.800,237.636 340.800 C 237.876 340.800,239.091 340.112,240.336 339.271 C 241.581 338.430,244.760 336.333,247.400 334.611 C 250.040 332.889,252.260 331.327,252.333 331.140 C 252.407 330.953,252.707 330.800,253.000 330.800 C 253.293 330.800,253.593 330.655,253.667 330.477 C 253.740 330.299,254.700 329.545,255.800 328.802 C 256.900 328.058,258.091 327.124,258.447 326.725 C 258.803 326.326,259.264 326.000,259.471 326.000 C 259.679 326.000,260.198 325.680,260.625 325.289 C 261.051 324.898,262.030 324.136,262.800 323.595 C 263.570 323.054,264.560 322.309,265.000 321.940 C 265.440 321.571,267.664 319.704,269.942 317.791 C 274.611 313.870,284.203 304.426,287.808 300.200 C 289.121 298.660,290.425 297.159,290.704 296.865 C 290.984 296.571,291.704 295.675,292.306 294.874 C 292.908 294.073,293.895 292.892,294.500 292.250 C 295.105 291.607,295.600 290.904,295.600 290.688 C 295.600 290.471,295.929 290.003,296.331 289.647 C 297.578 288.544,302.484 280.984,306.874 273.400 C 307.256 272.740,308.064 271.210,308.669 270.000 C 309.275 268.790,309.912 267.740,310.085 267.667 C 310.258 267.593,310.400 267.188,310.400 266.767 C 310.400 266.345,310.580 266.000,310.800 266.000 C 311.020 266.000,311.200 265.640,311.200 265.200 C 311.200 264.760,311.380 264.400,311.600 264.400 C 311.820 264.400,312.000 264.181,312.000 263.914 C 312.000 263.493,314.525 257.907,315.620 255.905 C 315.829 255.523,316.000 254.938,316.000 254.605 C 316.000 254.272,316.180 254.000,316.400 254.000 C 316.620 254.000,316.800 253.728,316.800 253.396 C 316.800 253.063,317.139 252.028,317.554 251.096 C 317.969 250.163,318.706 248.320,319.193 247.000 C 319.680 245.680,320.222 244.240,320.398 243.800 C 320.823 242.735,323.360 234.670,323.984 232.400 C 324.256 231.410,324.640 230.287,324.839 229.905 C 325.038 229.523,325.200 228.668,325.200 228.005 C 325.200 227.342,325.380 226.800,325.600 226.800 C 325.820 226.800,326.000 226.271,326.000 225.624 C 326.000 224.977,326.180 224.336,326.400 224.200 C 326.620 224.064,326.800 223.344,326.800 222.600 C 326.800 221.856,326.980 221.136,327.200 221.000 C 327.420 220.864,327.600 220.144,327.600 219.400 C 327.600 218.656,327.780 217.936,328.000 217.800 C 328.220 217.664,328.400 216.944,328.400 216.200 C 328.400 215.456,328.580 214.736,328.800 214.600 C 329.020 214.464,329.200 213.654,329.200 212.800 C 329.200 211.946,329.380 211.136,329.600 211.000 C 329.820 210.864,330.000 209.989,330.000 209.056 C 330.000 208.123,330.162 207.189,330.359 206.980 C 330.697 206.622,330.916 205.466,331.451 201.200 C 331.576 200.210,331.840 199.229,332.039 199.020 C 332.237 198.811,332.400 197.722,332.400 196.600 C 332.400 195.478,332.564 194.389,332.765 194.180 C 332.965 193.971,333.231 192.810,333.354 191.600 C 333.478 190.390,333.766 187.960,333.996 186.200 C 334.225 184.440,334.588 181.650,334.802 180.000 C 335.182 177.068,335.556 173.301,336.392 164.000 C 338.345 142.251,338.330 100.159,336.360 76.000 C 336.154 73.470,335.806 69.060,335.587 66.200 C 335.152 60.517,334.606 53.914,334.081 48.000 C 333.602 42.603,331.865 39.600,329.221 39.600 C 328.637 39.600,327.989 39.436,327.780 39.235 C 327.571 39.035,326.410 38.769,325.200 38.644 C 323.990 38.520,322.010 38.316,320.800 38.190 C 319.590 38.064,318.240 37.799,317.800 37.600 C 317.360 37.401,316.100 37.148,315.000 37.037 C 313.900 36.926,311.830 36.642,310.400 36.406 C 306.629 35.783,303.018 35.241,299.600 34.785 C 296.823 34.414,294.846 34.168,286.800 33.192 C 285.150 32.992,282.270 32.635,280.400 32.398 C 273.261 31.496,272.593 31.480,271.252 32.173 C 269.568 33.044,267.677 35.053,267.523 36.135 C 267.419 36.867,267.062 37.036,265.200 37.235 L 263.000 37.470 265.500 37.535 C 267.495 37.587,268.000 37.478,268.000 36.994 C 268.000 35.763,269.815 33.610,271.388 32.976 C 273.026 32.316,274.857 32.357,281.400 33.198 C 282.940 33.397,285.774 33.751,287.699 33.987 C 289.623 34.222,292.638 34.592,294.399 34.808 C 300.383 35.541,304.195 36.058,306.200 36.408 C 307.300 36.600,309.550 36.958,311.200 37.204 C 314.326 37.669,317.201 38.129,321.100 38.789 C 322.365 39.003,324.727 39.396,326.349 39.662 C 331.932 40.577,332.995 42.095,333.602 50.014 C 333.830 52.976,334.185 57.470,334.392 60.000 C 335.998 79.620,336.303 84.432,336.838 98.600 C 337.346 112.039,337.093 146.323,336.425 154.600 C 336.194 157.460,335.816 162.320,335.583 165.400 C 335.177 170.799,334.816 174.305,333.989 180.900 C 333.062 188.287,332.730 190.707,332.409 192.400 C 332.222 193.390,331.857 195.550,331.600 197.200 C 331.105 200.374,330.587 203.165,330.006 205.800 C 329.812 206.680,329.436 208.570,329.170 210.000 C 328.532 213.435,325.937 223.733,324.356 229.109 C 323.662 231.469,322.954 233.940,322.784 234.600 C 320.354 243.989,310.985 265.459,304.892 275.600 C 298.791 285.755,295.056 290.809,285.234 302.200 C 282.194 305.726,273.284 314.183,267.706 318.839 C 265.418 320.747,258.743 325.941,256.972 327.191 C 249.359 332.560,246.651 334.386,240.000 338.639 C 237.030 340.537,234.112 342.431,233.516 342.846 C 232.920 343.260,232.333 343.600,232.212 343.600 C 232.091 343.600,230.509 344.560,228.696 345.734 C 221.141 350.626,219.600 351.600,219.417 351.600 C 219.311 351.600,215.574 354.003,211.112 356.939 C 199.319 364.701,200.519 364.613,191.191 358.407 C 187.988 356.276,179.795 351.053,172.984 346.799 C 153.926 334.896,142.797 327.365,136.000 321.771 C 134.350 320.413,132.100 318.619,131.000 317.784 C 127.831 315.377,117.419 305.355,113.981 301.400 C 111.002 297.974,106.503 292.489,104.794 290.200 C 103.808 288.880,102.905 287.710,102.786 287.600 C 102.667 287.490,101.570 285.870,100.347 284.000 C 84.199 259.292,74.077 231.541,68.034 195.400 C 66.645 187.095,65.051 174.101,64.428 166.000 C 63.359 152.091,63.171 148.413,62.801 134.200 C 62.488 122.169,62.532 115.539,63.011 102.400 C 63.657 84.663,64.049 78.172,65.584 59.800 C 65.804 57.160,66.160 52.718,66.375 49.928 C 66.979 42.091,68.088 40.435,73.285 39.620 C 84.181 37.910,86.503 37.550,89.000 37.182 C 92.046 36.734,95.150 36.265,99.200 35.640 C 103.324 35.003,110.472 34.140,119.400 33.200 C 121.600 32.968,124.930 32.608,126.800 32.400 C 135.345 31.447,138.270 31.189,145.000 30.791 C 148.960 30.557,154.443 30.173,157.184 29.938 C 159.925 29.703,166.495 29.367,171.784 29.191 L 181.400 28.871 169.600 29.004 C 163.110 29.077,155.370 29.331,152.400 29.568 C 149.430 29.805,143.310 30.288,138.800 30.642 C 130.895 31.263,128.041 31.537,120.500 32.401 C 118.575 32.622,115.200 32.992,113.000 33.225 C 107.491 33.807,103.504 34.295,100.200 34.794 C 98.660 35.027,96.320 35.351,95.000 35.515 C 93.680 35.679,92.375 35.956,92.100 36.130 C 91.456 36.539,91.433 32.804,92.036 25.722 C 92.547 19.722,92.212 20.314,95.314 19.933 C 96.681 19.764,99.150 19.433,100.800 19.197 C 113.010 17.447,132.997 15.399,147.400 14.420 C 164.791 13.239,171.112 13.078,200.000 13.078 C 228.888 13.078,235.209 13.239,252.600 14.420 C 269.166 15.546,286.632 17.404,305.000 19.995 C 306.320 20.181,308.750 20.518,310.400 20.744 C 312.050 20.970,315.716 21.534,318.547 21.999 C 321.379 22.464,324.259 22.789,324.947 22.722 C 326.003 22.619,321.408 21.780,310.000 19.993 C 308.790 19.804,306.180 19.447,304.200 19.200 C 302.220 18.954,299.610 18.594,298.400 18.400 C 295.759 17.977,290.843 17.369,285.400 16.792 C 283.200 16.559,280.050 16.204,278.400 16.003 C 276.750 15.802,273.150 15.444,270.400 15.207 C 267.650 14.970,263.600 14.610,261.400 14.407 C 259.200 14.204,254.250 13.841,250.400 13.601 C 246.550 13.361,240.970 12.982,238.000 12.759 C 232.867 12.373,184.942 11.974,175.200 12.235 M184.600 28.400 C 183.280 28.546,191.560 28.667,203.000 28.668 C 214.440 28.669,222.450 28.543,220.800 28.388 C 217.033 28.032,187.834 28.042,184.600 28.400 M225.000 29.051 C 225.660 29.118,230.700 29.360,236.200 29.587 C 248.892 30.112,251.600 31.030,251.600 34.811 C 251.600 36.459,252.290 36.808,255.380 36.722 L 258.200 36.643 255.525 36.504 L 252.850 36.365 252.397 34.882 C 251.031 30.413,249.461 29.561,241.841 29.153 C 236.546 28.870,222.390 28.784,225.000 29.051 M259.900 37.082 C 260.395 37.178,261.205 37.178,261.700 37.082 C 262.195 36.987,261.790 36.909,260.800 36.909 C 259.810 36.909,259.405 36.987,259.900 37.082 M188.100 40.699 L 193.600 40.823 193.600 94.611 L 193.600 148.400 187.900 148.454 C 184.765 148.484,180.040 148.647,177.400 148.817 C 173.932 149.040,175.468 149.085,182.939 148.980 C 190.018 148.880,193.455 148.687,193.839 148.368 C 194.421 147.885,194.733 42.534,194.157 41.033 C 193.949 40.491,193.100 40.413,188.257 40.488 L 182.600 40.575 188.100 40.699 M166.000 41.200 L 161.000 41.438 167.800 41.474 C 171.540 41.494,176.310 41.380,178.400 41.220 C 183.400 40.838,173.938 40.822,166.000 41.200 M151.400 42.030 C 140.815 42.770,135.159 43.219,131.800 43.587 C 125.406 44.287,120.681 44.810,117.000 45.223 C 115.020 45.445,111.870 45.791,110.000 45.992 C 108.130 46.192,105.430 46.540,104.000 46.765 C 102.570 46.990,100.050 47.371,98.400 47.613 C 95.116 48.094,91.308 48.683,88.200 49.190 C 87.100 49.369,84.760 49.711,83.000 49.949 C 77.685 50.667,78.213 49.978,77.654 56.928 C 77.386 60.268,77.000 64.980,76.797 67.400 C 75.304 85.177,74.800 98.260,74.725 121.200 C 74.667 139.183,75.267 157.344,75.944 158.077 C 76.182 158.334,78.344 158.112,84.800 157.166 C 86.230 156.957,88.930 156.601,90.800 156.375 C 92.670 156.150,95.280 155.813,96.600 155.627 C 97.920 155.441,100.611 155.082,102.580 154.831 C 106.063 154.386,107.520 153.987,105.567 154.013 C 104.612 154.026,102.456 154.302,96.200 155.211 C 94.440 155.467,91.470 155.849,89.600 156.061 C 87.730 156.273,84.940 156.623,83.400 156.839 C 81.860 157.055,79.587 157.329,78.349 157.449 L 76.097 157.666 75.793 151.133 C 75.336 141.315,75.439 99.112,75.947 88.400 C 76.370 79.465,76.588 76.263,77.597 64.200 C 77.836 61.340,78.130 57.268,78.252 55.150 L 78.472 51.301 81.536 50.806 C 83.221 50.534,86.130 50.050,88.000 49.732 C 94.761 48.581,96.110 48.366,98.932 47.989 C 100.509 47.779,102.970 47.419,104.400 47.191 C 106.874 46.796,109.374 46.497,118.000 45.566 C 120.090 45.340,123.240 44.996,125.000 44.800 C 134.486 43.746,136.655 43.536,141.600 43.196 C 144.570 42.992,149.847 42.658,153.326 42.453 C 156.806 42.248,159.761 41.973,159.893 41.840 C 160.182 41.552,157.345 41.615,151.400 42.030 M157.400 149.600 L 155.400 149.874 158.000 149.890 C 159.430 149.899,162.400 149.777,164.600 149.619 L 168.600 149.332 164.000 149.329 C 161.470 149.327,158.500 149.449,157.400 149.600 M144.200 150.400 L 141.800 150.666 145.000 150.689 C 146.760 150.702,149.280 150.579,150.600 150.415 L 153.000 150.118 149.800 150.126 C 148.040 150.131,145.520 150.254,144.200 150.400 M132.800 151.200 C 130.136 151.614,134.877 151.628,138.200 151.215 L 140.600 150.918 137.600 150.919 C 135.950 150.920,133.790 151.046,132.800 151.200 M116.600 152.753 C 111.100 153.329,107.230 153.864,108.000 153.942 C 108.770 154.020,111.155 153.885,113.300 153.642 C 115.445 153.399,118.955 153.022,121.100 152.804 C 123.245 152.586,126.260 152.251,127.800 152.058 C 134.373 151.237,126.266 151.740,116.600 152.753 M206.191 160.901 C 205.879 161.753,205.782 237.552,206.094 237.062 C 206.256 236.808,206.391 219.583,206.394 198.784 L 206.400 160.969 215.300 161.082 C 224.737 161.201,238.281 161.749,248.200 162.413 C 262.085 163.342,265.999 163.634,269.600 164.013 C 271.690 164.232,278.620 164.950,285.000 165.608 C 291.380 166.267,297.590 166.919,298.800 167.059 C 300.010 167.198,300.901 167.203,300.780 167.069 C 300.547 166.813,295.782 166.166,289.800 165.580 C 286.306 165.238,281.841 164.782,274.000 163.968 C 266.783 163.218,261.776 162.804,255.200 162.413 C 251.570 162.197,245.810 161.840,242.400 161.619 C 226.951 160.620,206.443 160.214,206.191 160.901 M302.600 167.623 C 303.480 167.805,304.740 167.943,305.400 167.930 L 306.600 167.905 305.400 167.600 C 304.740 167.432,303.480 167.294,302.600 167.293 L 301.000 167.292 302.600 167.623 M308.200 168.423 C 310.418 168.882,312.651 168.865,311.200 168.400 C 310.650 168.224,309.390 168.083,308.400 168.086 L 306.600 168.092 308.200 168.423 M314.000 169.200 C 314.550 169.376,315.720 169.517,316.600 169.513 C 318.122 169.506,318.142 169.490,317.000 169.200 C 315.260 168.757,312.618 168.757,314.000 169.200 M319.600 169.968 C 320.150 170.162,321.116 170.338,321.747 170.360 L 322.894 170.400 322.622 173.500 C 322.473 175.205,322.194 177.680,322.003 179.000 C 321.812 180.320,321.448 183.020,321.193 185.000 C 320.938 186.980,320.287 191.185,319.747 194.345 C 319.206 197.505,318.839 200.295,318.930 200.545 C 319.022 200.795,319.223 200.280,319.377 199.400 C 319.531 198.520,319.818 196.900,320.013 195.800 C 320.596 192.525,321.109 189.208,321.590 185.600 C 321.839 183.730,322.204 181.030,322.400 179.600 C 323.738 169.841,323.770 170.009,320.541 169.763 C 319.059 169.651,318.837 169.699,319.600 169.968 M318.215 203.000 C 318.056 203.880,317.764 205.230,317.566 206.000 C 317.185 207.477,317.077 209.056,317.378 208.755 C 317.704 208.430,318.849 202.345,318.674 201.868 C 318.580 201.611,318.373 202.120,318.215 203.000 M316.622 210.622 C 316.472 211.425,316.438 212.172,316.548 212.282 C 316.658 212.392,316.872 211.825,317.022 211.022 C 317.173 210.219,317.206 209.473,317.096 209.363 C 316.986 209.253,316.773 209.819,316.622 210.622 M315.800 214.000 C 315.648 214.691,315.614 215.347,315.724 215.457 C 315.834 215.567,316.048 215.091,316.200 214.400 C 316.352 213.709,316.386 213.053,316.276 212.943 C 316.166 212.833,315.952 213.309,315.800 214.000 M315.000 217.200 C 314.848 217.891,314.814 218.547,314.924 218.657 C 315.034 218.767,315.248 218.291,315.400 217.600 C 315.552 216.909,315.586 216.253,315.476 216.143 C 315.366 216.033,315.152 216.509,315.000 217.200 M314.050 221.000 C 313.194 224.436,313.181 225.096,314.019 222.608 C 314.461 221.293,314.762 219.943,314.686 219.608 C 314.610 219.274,314.324 219.900,314.050 221.000 M312.673 225.753 C 312.523 226.145,312.411 226.766,312.425 227.133 C 312.442 227.575,312.581 227.474,312.837 226.834 C 313.049 226.303,313.161 225.682,313.085 225.454 C 313.009 225.227,312.824 225.361,312.673 225.753 M311.818 229.000 C 311.664 229.660,311.397 230.560,311.224 231.000 C 311.052 231.440,310.694 232.520,310.429 233.400 C 310.164 234.280,309.791 235.360,309.600 235.800 C 309.409 236.240,308.869 237.770,308.400 239.200 C 307.534 241.842,307.354 242.316,306.272 244.800 C 304.872 248.015,303.984 250.517,304.174 250.707 C 304.286 250.819,304.544 250.481,304.746 249.955 C 304.949 249.430,305.833 247.200,306.710 245.000 C 309.058 239.110,312.479 228.830,312.275 228.278 C 312.178 228.015,311.972 228.340,311.818 229.000 M204.817 238.968 C 204.510 239.541,203.706 240.365,203.030 240.799 C 202.314 241.257,202.060 241.589,202.422 241.593 C 203.222 241.602,205.739 239.017,205.532 238.397 C 205.446 238.138,205.124 238.395,204.817 238.968 M301.853 255.253 C 300.824 257.487,300.071 259.404,300.180 259.513 C 300.289 259.622,300.545 259.270,300.750 258.731 C 300.955 258.191,301.793 256.358,302.611 254.658 C 303.429 252.957,304.015 251.481,303.912 251.378 C 303.809 251.276,302.883 253.019,301.853 255.253 M200.863 257.990 C 202.583 258.510,204.301 259.667,204.836 260.667 C 205.110 261.180,205.414 261.519,205.511 261.422 C 206.297 260.636,202.345 257.564,200.639 257.634 C 199.945 257.663,199.983 257.724,200.863 257.990 M299.459 260.305 C 299.337 260.502,298.579 261.909,297.775 263.432 C 295.707 267.347,295.029 268.571,294.800 268.800 C 294.404 269.196,293.146 271.415,292.929 272.100 C 292.807 272.485,292.548 272.800,292.353 272.800 C 292.159 272.800,292.000 272.993,292.000 273.230 C 292.000 273.898,286.052 282.364,282.676 286.500 C 281.823 287.545,281.251 288.400,281.405 288.400 C 282.212 288.400,289.861 277.790,294.102 270.789 C 296.707 266.489,300.033 260.300,299.842 260.109 C 299.753 260.020,299.580 260.108,299.459 260.305 M205.911 303.729 C 205.972 326.638,206.152 345.507,206.311 345.661 C 206.470 345.815,208.090 344.964,209.911 343.770 C 211.732 342.577,213.315 341.600,213.429 341.600 C 213.543 341.600,214.933 340.728,216.518 339.662 C 218.103 338.596,219.580 337.651,219.800 337.562 C 220.741 337.182,226.819 333.086,226.668 332.934 C 226.509 332.776,220.013 336.792,212.904 341.443 C 211.091 342.629,209.471 343.604,209.304 343.609 C 209.137 343.614,208.550 343.970,208.000 344.400 C 207.450 344.830,206.865 345.186,206.700 345.191 C 206.535 345.196,206.397 326.705,206.394 304.100 C 206.391 281.495,206.256 262.792,206.094 262.538 C 205.932 262.284,205.850 280.820,205.911 303.729 M280.197 289.315 C 273.839 296.956,265.374 305.296,258.800 310.396 C 257.810 311.164,256.640 312.121,256.200 312.522 C 253.675 314.825,239.569 324.800,238.838 324.800 C 238.597 324.800,238.400 324.980,238.400 325.200 C 238.400 325.420,238.130 325.600,237.800 325.600 C 237.470 325.600,237.200 325.780,237.200 326.000 C 237.200 326.220,237.012 326.400,236.782 326.400 C 236.357 326.400,230.531 330.170,229.800 330.919 C 228.815 331.927,242.990 322.725,249.836 317.913 C 259.914 310.828,283.567 288.693,280.929 288.815 C 280.748 288.824,280.418 289.049,280.197 289.315 M228.100 331.688 C 227.605 331.927,227.200 332.281,227.200 332.475 C 227.200 332.886,228.638 332.185,229.001 331.598 C 229.293 331.125,229.260 331.129,228.100 331.688 " stroke="none" fill="#9ca3b3" fill-rule="evenodd"></path><path id="path4" d="M169.471 13.062 C 169.312 13.222,165.540 13.507,161.091 13.696 C 142.332 14.494,118.360 16.681,100.800 19.197 C 99.150 19.433,96.681 19.764,95.314 19.933 C 92.212 20.314,92.547 19.722,92.036 25.722 C 91.433 32.804,91.456 36.539,92.100 36.130 C 92.375 35.956,93.680 35.679,95.000 35.515 C 96.320 35.351,98.660 35.027,100.200 34.794 C 103.504 34.295,107.491 33.807,113.000 33.225 C 115.200 32.992,118.575 32.622,120.500 32.401 C 129.629 31.355,131.008 31.233,152.600 29.566 C 166.559 28.488,209.489 27.726,221.000 28.351 C 225.400 28.590,233.140 28.926,238.200 29.096 C 249.791 29.487,250.887 29.930,252.378 34.825 L 252.812 36.249 259.763 36.775 C 266.932 37.316,267.600 37.253,267.600 36.036 C 267.600 35.131,269.578 33.039,271.252 32.173 C 272.592 31.480,273.233 31.496,280.400 32.396 C 282.270 32.630,285.330 33.007,287.200 33.233 C 299.575 34.729,303.477 35.262,310.400 36.406 C 311.830 36.642,313.900 36.926,315.000 37.037 C 316.100 37.148,317.360 37.401,317.800 37.600 C 318.240 37.799,319.590 38.064,320.800 38.190 C 322.010 38.316,323.990 38.520,325.200 38.644 C 326.410 38.769,327.571 39.035,327.780 39.235 C 327.989 39.436,328.637 39.600,329.221 39.600 C 331.865 39.600,333.602 42.603,334.081 48.000 C 334.606 53.914,335.152 60.517,335.587 66.200 C 335.806 69.060,336.154 73.470,336.360 76.000 C 338.330 100.159,338.345 142.251,336.392 164.000 C 335.300 176.152,335.154 177.510,333.989 186.300 C 333.763 188.005,333.478 190.390,333.354 191.600 C 333.231 192.810,332.965 193.971,332.765 194.180 C 332.564 194.389,332.400 195.478,332.400 196.600 C 332.400 197.722,332.237 198.811,332.039 199.020 C 331.840 199.229,331.576 200.210,331.451 201.200 C 330.916 205.466,330.697 206.622,330.359 206.980 C 330.162 207.189,330.000 208.123,330.000 209.056 C 330.000 209.989,329.820 210.864,329.600 211.000 C 329.380 211.136,329.200 211.946,329.200 212.800 C 329.200 213.654,329.020 214.464,328.800 214.600 C 328.580 214.736,328.400 215.456,328.400 216.200 C 328.400 216.944,328.220 217.664,328.000 217.800 C 327.780 217.936,327.600 218.656,327.600 219.400 C 327.600 220.144,327.420 220.864,327.200 221.000 C 326.980 221.136,326.800 221.856,326.800 222.600 C 326.800 223.344,326.620 224.064,326.400 224.200 C 326.180 224.336,326.000 224.977,326.000 225.624 C 326.000 226.271,325.820 226.800,325.600 226.800 C 325.380 226.800,325.200 227.342,325.200 228.005 C 325.200 228.668,325.038 229.523,324.839 229.905 C 324.640 230.287,324.256 231.410,323.984 232.400 C 323.360 234.670,320.823 242.735,320.398 243.800 C 320.222 244.240,319.680 245.680,319.193 247.000 C 318.706 248.320,317.969 250.163,317.554 251.096 C 317.139 252.028,316.800 253.063,316.800 253.396 C 316.800 253.728,316.620 254.000,316.400 254.000 C 316.180 254.000,316.000 254.272,316.000 254.605 C 316.000 254.938,315.829 255.523,315.620 255.905 C 314.525 257.907,312.000 263.493,312.000 263.914 C 312.000 264.181,311.820 264.400,311.600 264.400 C 311.380 264.400,311.200 264.760,311.200 265.200 C 311.200 265.640,311.020 266.000,310.800 266.000 C 310.580 266.000,310.400 266.345,310.400 266.767 C 310.400 267.188,310.258 267.593,310.085 267.667 C 309.912 267.740,309.275 268.790,308.669 270.000 C 308.064 271.210,307.256 272.740,306.874 273.400 C 302.484 280.984,297.578 288.544,296.331 289.647 C 295.929 290.003,295.600 290.471,295.600 290.688 C 295.600 290.904,295.105 291.607,294.500 292.250 C 293.895 292.892,292.908 294.073,292.306 294.874 C 291.704 295.675,290.984 296.571,290.704 296.865 C 290.425 297.159,289.121 298.660,287.808 300.200 C 284.203 304.426,274.611 313.870,269.942 317.791 C 267.664 319.704,265.440 321.571,265.000 321.940 C 264.560 322.309,263.570 323.054,262.800 323.595 C 262.030 324.136,261.051 324.898,260.625 325.289 C 260.198 325.680,259.679 326.000,259.471 326.000 C 259.264 326.000,258.803 326.326,258.447 326.725 C 258.091 327.124,256.900 328.058,255.800 328.802 C 254.700 329.545,253.740 330.299,253.667 330.477 C 253.593 330.655,253.293 330.800,253.000 330.800 C 252.707 330.800,252.407 330.953,252.333 331.140 C 252.260 331.327,250.040 332.889,247.400 334.611 C 244.760 336.333,241.581 338.430,240.336 339.271 C 239.091 340.112,237.876 340.800,237.636 340.800 C 237.396 340.800,237.200 340.980,237.200 341.200 C 237.200 341.420,237.010 341.600,236.778 341.600 C 236.546 341.600,235.296 342.320,234.000 343.200 C 232.704 344.080,231.454 344.800,231.222 344.800 C 230.990 344.800,230.800 344.980,230.800 345.200 C 230.800 345.420,230.610 345.600,230.378 345.600 C 230.146 345.600,228.896 346.320,227.600 347.200 C 226.304 348.080,225.136 348.800,225.005 348.800 C 224.874 348.800,224.549 348.985,224.283 349.211 C 224.017 349.437,221.910 350.811,219.600 352.264 C 212.195 356.924,211.808 357.172,211.315 357.591 C 211.048 357.818,210.373 358.212,209.815 358.466 C 209.257 358.720,208.800 359.080,208.800 359.264 C 208.800 359.449,208.530 359.600,208.200 359.600 C 207.870 359.600,207.600 359.780,207.600 360.000 C 207.600 360.220,207.330 360.400,207.000 360.400 C 206.670 360.400,206.400 360.580,206.400 360.800 C 206.400 361.020,206.130 361.200,205.800 361.200 C 205.470 361.200,205.200 361.380,205.200 361.600 C 205.200 361.820,204.930 362.000,204.600 362.000 C 204.270 362.000,203.999 362.135,203.997 362.300 C 203.995 362.465,203.509 362.825,202.917 363.100 C 201.635 363.695,197.600 363.771,197.600 363.200 C 197.600 362.980,197.240 362.800,196.800 362.800 C 196.360 362.800,196.000 362.650,196.000 362.468 C 196.000 362.285,195.505 361.880,194.900 361.568 C 194.295 361.255,193.451 360.685,193.025 360.300 C 192.598 359.915,192.013 359.600,191.725 359.600 C 191.436 359.600,191.200 359.432,191.200 359.227 C 191.200 359.022,190.841 358.740,190.402 358.601 C 189.964 358.462,189.355 358.097,189.049 357.792 C 188.743 357.486,187.942 356.913,187.269 356.518 C 186.595 356.123,183.855 354.405,181.179 352.700 C 178.502 350.995,176.152 349.600,175.956 349.600 C 175.760 349.600,175.600 349.420,175.600 349.200 C 175.600 348.980,175.410 348.800,175.178 348.800 C 174.946 348.800,173.696 348.080,172.400 347.200 C 171.104 346.320,169.854 345.600,169.622 345.600 C 169.390 345.600,169.200 345.420,169.200 345.200 C 169.200 344.980,168.930 344.800,168.600 344.800 C 168.270 344.800,168.000 344.620,168.000 344.400 C 168.000 344.180,167.730 344.000,167.400 344.000 C 167.070 344.000,166.800 343.820,166.800 343.600 C 166.800 343.380,166.607 343.200,166.372 343.200 C 166.137 343.200,165.159 342.660,164.200 342.000 C 163.241 341.340,162.346 340.800,162.211 340.800 C 162.076 340.800,161.749 340.615,161.483 340.389 C 161.217 340.164,160.190 339.473,159.200 338.854 C 155.214 336.361,147.788 331.480,147.600 331.229 C 147.490 331.082,146.770 330.525,146.000 329.992 C 145.230 329.458,144.251 328.702,143.825 328.311 C 143.398 327.920,142.853 327.600,142.613 327.600 C 142.373 327.600,141.917 327.240,141.600 326.800 C 141.283 326.360,140.827 326.000,140.587 326.000 C 140.347 326.000,139.798 325.685,139.367 325.300 C 137.742 323.848,133.600 320.757,133.600 320.995 C 133.600 321.358,136.577 325.715,139.344 329.400 C 141.808 332.681,144.388 335.779,149.339 341.400 C 156.020 348.986,177.020 369.200,178.220 369.200 C 178.588 369.200,185.794 374.121,185.933 374.468 C 186.007 374.650,186.230 374.800,186.429 374.800 C 186.771 374.800,187.846 375.589,189.016 376.700 C 189.306 376.975,189.691 377.202,189.871 377.205 C 190.052 377.208,190.830 377.731,191.600 378.368 C 195.475 381.574,199.716 384.800,200.054 384.800 C 200.371 384.800,204.185 381.865,207.866 378.788 C 208.342 378.390,209.152 377.843,209.666 377.572 C 210.180 377.302,210.690 376.964,210.800 376.821 C 210.910 376.678,211.630 376.129,212.400 375.600 C 213.170 375.071,213.890 374.526,214.000 374.389 C 214.426 373.858,219.179 370.800,219.578 370.800 C 219.810 370.800,220.000 370.641,220.000 370.446 C 220.000 370.251,220.585 369.797,221.300 369.438 C 222.015 369.080,224.805 367.349,227.501 365.593 C 230.196 363.837,232.581 362.400,232.801 362.400 C 233.020 362.400,233.200 362.265,233.200 362.099 C 233.200 361.934,234.055 361.351,235.100 360.803 C 236.145 360.256,237.349 359.491,237.775 359.104 C 238.202 358.717,238.787 358.400,239.075 358.400 C 239.364 358.400,239.600 358.241,239.600 358.047 C 239.600 357.852,239.915 357.593,240.300 357.471 C 241.209 357.183,243.153 355.988,244.158 355.100 C 244.594 354.715,245.187 354.400,245.475 354.400 C 245.764 354.400,246.000 354.220,246.000 354.000 C 246.000 353.780,246.236 353.600,246.525 353.600 C 246.813 353.600,247.436 353.240,247.908 352.800 C 248.380 352.360,248.870 352.000,248.997 352.000 C 249.124 352.000,251.207 350.650,253.626 349.000 C 256.045 347.350,258.154 346.000,258.312 345.999 C 258.471 345.999,259.230 345.459,260.000 344.800 C 260.770 344.141,261.625 343.601,261.900 343.601 C 262.175 343.600,262.400 343.462,262.400 343.294 C 262.400 343.126,263.120 342.544,264.000 342.000 C 264.880 341.456,265.600 340.916,265.600 340.800 C 265.600 340.684,266.320 340.144,267.200 339.600 C 268.080 339.056,268.800 338.474,268.800 338.306 C 268.800 338.138,269.070 338.000,269.400 338.000 C 269.730 338.000,270.000 337.862,270.000 337.693 C 270.000 337.524,270.427 337.119,270.948 336.793 C 271.470 336.467,272.764 335.480,273.823 334.600 C 274.883 333.720,277.381 331.650,279.375 330.000 C 286.040 324.485,298.033 312.606,301.589 307.999 C 302.352 307.010,303.261 305.930,303.608 305.600 C 303.954 305.270,304.677 304.370,305.213 303.600 C 306.189 302.199,307.036 301.111,307.815 300.255 C 308.043 300.005,309.033 298.631,310.015 297.203 C 310.997 295.774,311.937 294.424,312.105 294.203 C 313.645 292.167,320.088 281.663,321.183 279.404 C 321.504 278.742,321.872 278.110,322.002 278.000 C 322.132 277.890,322.725 276.810,323.321 275.600 C 323.916 274.390,324.657 272.950,324.966 272.400 C 326.658 269.393,329.910 261.902,332.781 254.400 C 333.917 251.430,335.016 248.687,335.223 248.305 C 335.431 247.923,335.600 247.259,335.600 246.829 C 335.600 246.399,335.780 245.936,336.000 245.800 C 336.220 245.664,336.400 245.124,336.400 244.600 C 336.400 244.076,336.580 243.536,336.800 243.400 C 337.020 243.264,337.200 242.724,337.200 242.200 C 337.200 241.676,337.380 241.136,337.600 241.000 C 337.820 240.864,338.000 240.313,338.000 239.776 C 338.000 239.239,338.180 238.800,338.400 238.800 C 338.620 238.800,338.800 238.271,338.800 237.624 C 338.800 236.977,338.980 236.336,339.200 236.200 C 339.420 236.064,339.600 235.434,339.600 234.800 C 339.600 234.166,339.780 233.536,340.000 233.400 C 340.220 233.264,340.400 232.634,340.400 232.000 C 340.400 231.366,340.580 230.736,340.800 230.600 C 341.020 230.464,341.200 229.834,341.200 229.200 C 341.200 228.566,341.380 227.936,341.600 227.800 C 341.820 227.664,342.000 226.933,342.000 226.176 C 342.000 225.419,342.180 224.800,342.400 224.800 C 342.620 224.800,342.800 224.091,342.800 223.224 C 342.800 222.357,342.980 221.536,343.200 221.400 C 343.420 221.264,343.600 220.454,343.600 219.600 C 343.600 218.746,343.761 217.948,343.958 217.826 C 344.155 217.705,344.413 216.929,344.532 216.103 C 344.651 215.276,344.947 213.700,345.190 212.600 C 345.433 211.500,345.807 209.520,346.022 208.200 C 346.236 206.880,346.694 204.360,347.040 202.600 C 347.386 200.840,347.826 198.230,348.019 196.800 C 348.211 195.370,348.563 192.940,348.800 191.400 C 349.612 186.126,350.024 182.997,350.434 179.000 C 350.659 176.800,351.019 173.380,351.233 171.400 C 353.685 148.698,354.007 110.214,352.010 78.400 C 351.301 67.103,349.860 50.005,348.807 40.400 C 348.626 38.750,348.277 35.240,348.032 32.600 C 347.476 26.614,347.553 26.800,345.636 26.800 C 344.762 26.800,343.936 26.620,343.800 26.400 C 343.664 26.180,342.764 26.000,341.800 26.000 C 340.836 26.000,339.950 25.843,339.831 25.650 C 339.712 25.458,338.666 25.192,337.507 25.059 C 336.348 24.926,334.410 24.626,333.200 24.393 C 329.025 23.588,326.590 23.180,323.600 22.784 C 321.950 22.565,318.980 22.106,317.000 21.763 C 315.020 21.420,312.050 20.958,310.400 20.736 C 308.750 20.515,306.320 20.181,305.000 19.995 C 282.287 16.791,264.106 15.016,239.200 13.571 C 230.885 13.089,169.890 12.644,169.471 13.062 M178.800 41.200 L 175.400 41.451 178.800 41.486 C 180.670 41.505,183.190 41.384,184.400 41.217 L 186.600 40.913 184.400 40.931 C 183.190 40.941,180.670 41.062,178.800 41.200 M158.800 42.000 L 157.400 42.295 159.000 42.319 C 159.880 42.333,160.960 42.189,161.400 42.000 C 162.442 41.552,160.926 41.552,158.800 42.000 M147.400 42.800 L 145.800 43.086 147.600 43.137 C 148.590 43.165,149.670 43.013,150.000 42.800 C 150.713 42.339,149.972 42.339,147.400 42.800 M136.200 43.600 L 134.600 43.886 136.000 43.903 C 136.770 43.913,137.850 43.776,138.400 43.600 C 139.685 43.188,138.499 43.188,136.200 43.600 M128.600 44.400 L 127.400 44.705 128.600 44.747 C 129.260 44.769,130.070 44.613,130.400 44.400 C 131.143 43.920,130.487 43.920,128.600 44.400 M121.400 45.200 L 120.200 45.505 121.400 45.547 C 122.060 45.569,122.870 45.413,123.200 45.200 C 123.943 44.720,123.287 44.720,121.400 45.200 M114.000 46.000 L 112.600 46.295 114.000 46.341 C 114.770 46.367,115.670 46.213,116.000 46.000 C 116.727 45.530,116.233 45.530,114.000 46.000 M107.000 46.800 L 105.800 47.105 107.000 47.147 C 107.660 47.169,108.470 47.013,108.800 46.800 C 109.543 46.320,108.887 46.320,107.000 46.800 M101.800 47.600 C 100.693 47.882,100.677 47.909,101.600 47.947 C 102.150 47.969,102.870 47.813,103.200 47.600 C 103.881 47.160,103.529 47.160,101.800 47.600 M96.000 48.400 C 94.633 48.688,94.628 48.695,95.800 48.719 C 96.460 48.733,97.360 48.589,97.800 48.400 C 98.762 47.987,97.964 47.987,96.000 48.400 M91.967 48.965 C 91.875 49.056,90.000 49.422,87.800 49.779 C 85.600 50.136,82.601 50.627,81.136 50.871 L 78.471 51.315 78.251 55.158 C 78.130 57.271,77.836 61.340,77.597 64.200 C 76.588 76.263,76.370 79.465,75.947 88.400 C 75.439 99.112,75.336 141.315,75.793 151.133 L 76.097 157.666 78.349 157.449 C 81.020 157.191,85.508 156.598,87.945 156.181 L 89.690 155.883 89.472 152.041 C 88.313 131.656,88.367 91.916,89.595 62.224 C 90.106 49.840,90.109 49.825,91.936 49.312 C 92.741 49.086,93.115 48.878,92.767 48.851 C 92.418 48.823,92.058 48.874,91.967 48.965 M187.500 148.295 C 188.655 148.376,190.545 148.376,191.700 148.295 C 192.855 148.214,191.910 148.148,189.600 148.148 C 187.290 148.148,186.345 148.214,187.500 148.295 M176.300 148.693 C 177.235 148.777,178.765 148.777,179.700 148.693 C 180.635 148.609,179.870 148.540,178.000 148.540 C 176.130 148.540,175.365 148.609,176.300 148.693 M163.700 149.097 C 165.405 149.172,168.195 149.172,169.900 149.097 C 171.605 149.022,170.210 148.961,166.800 148.961 C 163.390 148.961,161.995 149.022,163.700 149.097 M157.105 149.483 C 157.602 149.579,158.322 149.575,158.705 149.475 C 159.087 149.375,158.680 149.296,157.800 149.301 C 156.920 149.305,156.607 149.387,157.105 149.483 M150.100 149.894 C 151.145 149.976,152.855 149.976,153.900 149.894 C 154.945 149.812,154.090 149.744,152.000 149.744 C 149.910 149.744,149.055 149.812,150.100 149.894 M144.500 150.276 C 144.885 150.376,145.515 150.376,145.900 150.276 C 146.285 150.175,145.970 150.093,145.200 150.093 C 144.430 150.093,144.115 150.175,144.500 150.276 M136.500 150.694 C 137.545 150.776,139.255 150.776,140.300 150.694 C 141.345 150.612,140.490 150.544,138.400 150.544 C 136.310 150.544,135.455 150.612,136.500 150.694 M127.907 151.490 C 128.626 151.579,129.706 151.577,130.307 151.486 C 130.908 151.395,130.320 151.322,129.000 151.324 C 127.680 151.326,127.188 151.401,127.907 151.490 M118.000 152.402 C 117.400 152.595,118.040 152.637,119.600 152.506 C 121.030 152.386,122.275 152.223,122.367 152.144 C 122.689 151.865,118.988 152.084,118.000 152.402 M110.200 153.190 C 109.717 153.392,110.351 153.438,111.800 153.307 C 113.120 153.187,114.275 153.024,114.367 152.945 C 114.707 152.649,110.970 152.869,110.200 153.190 M103.000 153.996 C 102.502 154.208,103.031 154.251,104.400 154.112 C 105.610 153.989,106.675 153.823,106.767 153.744 C 107.111 153.447,103.767 153.670,103.000 153.996 M97.200 154.821 C 96.770 155.114,97.054 155.154,98.200 154.962 C 100.184 154.630,100.504 154.398,98.967 154.406 C 98.325 154.409,97.530 154.596,97.200 154.821 M91.600 155.621 C 91.170 155.914,91.454 155.954,92.600 155.762 C 94.584 155.430,94.904 155.198,93.367 155.206 C 92.725 155.209,91.930 155.396,91.600 155.621 M207.105 161.083 C 207.602 161.179,208.322 161.175,208.705 161.075 C 209.087 160.975,208.680 160.896,207.800 160.901 C 206.920 160.905,206.607 160.987,207.105 161.083 M227.200 161.600 C 229.423 161.924,237.075 162.126,236.767 161.852 C 236.675 161.770,233.990 161.608,230.800 161.492 C 227.183 161.359,225.828 161.400,227.200 161.600 M244.400 162.398 C 245.378 162.713,250.296 162.941,249.967 162.656 C 249.875 162.577,248.360 162.414,246.600 162.294 C 244.754 162.169,243.823 162.213,244.400 162.398 M256.800 163.198 C 257.778 163.513,262.696 163.741,262.367 163.456 C 262.275 163.377,260.760 163.214,259.000 163.094 C 257.154 162.969,256.223 163.013,256.800 163.198 M267.400 163.997 C 268.164 164.328,271.114 164.555,270.767 164.256 C 270.675 164.177,269.700 164.009,268.600 163.882 C 267.313 163.733,266.885 163.774,267.400 163.997 M275.400 164.810 C 276.170 165.131,279.907 165.351,279.567 165.055 C 279.475 164.976,278.320 164.813,277.000 164.693 C 275.551 164.562,274.917 164.608,275.400 164.810 M283.000 165.610 C 283.770 165.931,287.507 166.151,287.167 165.855 C 287.075 165.776,285.920 165.613,284.600 165.493 C 283.151 165.362,282.517 165.408,283.000 165.610 M290.600 166.410 C 291.370 166.731,295.107 166.951,294.767 166.655 C 294.675 166.576,293.520 166.413,292.200 166.293 C 290.751 166.162,290.117 166.208,290.600 166.410 M297.400 167.204 C 298.167 167.530,301.511 167.753,301.167 167.456 C 301.075 167.377,300.010 167.211,298.800 167.088 C 297.431 166.949,296.902 166.992,297.400 167.204 M303.000 168.004 C 303.767 168.330,307.111 168.553,306.767 168.256 C 306.675 168.177,305.610 168.011,304.400 167.888 C 303.031 167.749,302.502 167.792,303.000 168.004 M310.700 169.082 C 311.195 169.178,312.005 169.178,312.500 169.082 C 312.995 168.987,312.590 168.909,311.600 168.909 C 310.610 168.909,310.205 168.987,310.700 169.082 M316.300 169.882 C 316.795 169.978,317.605 169.978,318.100 169.882 C 318.595 169.787,318.190 169.709,317.200 169.709 C 316.210 169.709,315.805 169.787,316.300 169.882 M321.677 170.671 C 322.118 170.788,322.409 171.365,322.510 172.325 L 322.666 173.800 322.733 172.100 C 322.793 170.572,322.709 170.405,321.900 170.446 C 321.259 170.479,321.195 170.544,321.677 170.671 M321.849 177.415 C 321.712 177.773,321.621 178.546,321.646 179.133 C 321.680 179.932,321.770 179.798,322.004 178.600 C 322.335 176.900,322.262 176.340,321.849 177.415 M321.049 183.815 C 320.912 184.173,320.821 184.946,320.846 185.533 C 320.880 186.332,320.970 186.198,321.204 185.000 C 321.535 183.300,321.462 182.740,321.049 183.815 M320.249 189.415 C 320.112 189.773,320.018 190.456,320.041 190.933 C 320.067 191.481,320.203 191.286,320.410 190.403 C 320.760 188.916,320.665 188.333,320.249 189.415 M319.449 194.215 C 319.312 194.573,319.218 195.256,319.241 195.733 C 319.267 196.281,319.403 196.086,319.610 195.203 C 319.960 193.716,319.865 193.133,319.449 194.215 M318.493 200.400 C 318.493 201.170,318.575 201.485,318.676 201.100 C 318.776 200.715,318.776 200.085,318.676 199.700 C 318.575 199.315,318.493 199.630,318.493 200.400 M204.175 240.500 L 203.000 241.800 204.300 240.625 C 205.015 239.979,205.600 239.394,205.600 239.325 C 205.600 239.016,205.270 239.288,204.175 240.500 M200.900 242.012 C 200.006 242.372,200.001 242.423,200.091 250.087 L 200.182 257.800 200.299 250.100 C 200.396 243.772,200.518 242.400,200.985 242.400 C 201.297 242.400,201.664 242.220,201.800 242.000 C 202.087 241.536,202.085 241.536,200.900 242.012 M283.775 284.668 C 283.159 285.476,282.859 286.011,283.109 285.856 C 283.621 285.540,285.353 283.200,285.075 283.200 C 284.976 283.200,284.391 283.861,283.775 284.668 M281.400 287.600 C 280.768 288.260,280.419 288.790,280.625 288.778 C 280.978 288.757,283.039 286.400,282.705 286.400 C 282.620 286.400,282.032 286.940,281.400 287.600 M272.378 297.900 L 271.000 299.400 272.500 298.022 C 273.896 296.738,274.184 296.400,273.878 296.400 C 273.812 296.400,273.137 297.075,272.378 297.900 M265.387 304.500 L 263.000 307.000 265.500 304.613 C 266.875 303.299,268.000 302.174,268.000 302.113 C 268.000 301.817,267.605 302.178,265.387 304.500 M252.400 315.249 C 251.006 316.471,251.005 316.472,252.288 315.619 C 252.996 315.148,253.682 314.591,253.812 314.381 C 254.197 313.757,253.877 313.954,252.400 315.249 M229.496 330.550 C 227.575 331.731,227.038 332.289,228.600 331.481 C 229.854 330.833,231.545 329.626,231.200 329.625 C 231.090 329.625,230.323 330.041,229.496 330.550 M222.800 334.836 C 222.136 335.379,222.069 335.515,222.600 335.240 C 223.905 334.566,224.628 334.012,224.200 334.015 C 223.980 334.017,223.350 334.386,222.800 334.836 " stroke="none" fill="#bbbccc" fill-rule="evenodd"></path></g></svg>